<svg width="1280" height="1024" viewBox="0 0 1280 1024" fill="none" xmlns="http://www.w3.org/2000/svg">
<path d="M1266.93 739.187C1284.12 678.22 1348.12 643.882 1408.77 662.168C1469.42 680.455 1503.75 744.443 1485.47 805.09L1433.23 978.339C1407.03 1065.22 1342.95 1143.73 1252.38 1149.41C1192.56 1153.15 1142.43 1134.77 1172.11 1049.74C1218.26 917.543 1238.68 839.378 1266.93 739.187Z" fill="#FEEFDD"/>
<path fill-rule="evenodd" clip-rule="evenodd" d="M101.481 843.342L102.168 844.619L102.855 845.896L103.54 847.174L104.224 848.455L104.905 849.738L105.583 851.023L106.256 852.312L106.925 853.606L107.588 854.903L108.245 856.205L108.895 857.513L109.537 858.825L110.171 860.144L110.795 861.469L111.409 862.8L112.012 864.138L112.603 865.482L113.181 866.833L113.746 868.191L114.296 869.557L114.832 870.929L115.351 872.309L115.854 873.696L116.339 875.089L116.806 876.49L117.254 877.898L117.681 879.313L118.089 880.734L118.474 882.161L118.838 883.595L119.179 885.034L119.496 886.479L119.79 887.929L120.058 889.384L120.302 890.844L120.519 892.308L120.71 893.775L120.874 895.246L121.011 896.719L121.121 898.194L121.202 899.672L121.255 901.15L121.279 902.629L121.275 904.108L121.241 905.587L121.178 907.065L121.087 908.541L120.965 910.015L120.815 911.486L120.635 912.954L120.426 914.418L120.189 915.878L119.922 917.332L119.627 918.781L119.304 920.223L118.953 921.659L118.574 923.088L118.168 924.508L117.736 925.921L117.277 927.325L116.793 928.719L116.284 930.104L115.75 931.479L115.192 932.843L114.611 934.196L114.008 935.539L113.383 936.869L112.736 938.188L112.07 939.495L111.383 940.79L110.678 942.072L109.955 943.341L109.215 944.598L108.458 945.841L107.686 947.072L106.898 948.289L106.097 949.493L105.283 950.685L104.456 951.863L103.618 953.028L102.769 954.18L101.91 955.319L101.042 956.445L100.165 957.559L99.2808 958.66L98.3897 959.749L97.4925 960.827L96.5898 961.892L95.6824 962.946L94.7709 963.989L93.8561 965.021L92.9385 966.043L92.0188 967.054L91.0976 968.056L90.1755 969.048L89.253 970.032L88.3308 971.007L87.4093 971.973L86.489 972.933L85.5704 973.885L84.654 974.83L83.7402 975.769L82.8294 976.703L81.9221 977.631L81.0186 978.555L80.1192 979.475L79.2244 980.392L78.3344 981.306L77.4494 982.217L76.5699 983.127L75.696 984.035L74.828 984.944L73.9661 985.852L73.1105 986.762L72.2614 987.673L71.419 988.586L70.5833 989.502L69.7547 990.422L68.9331 991.346L68.1187 992.276L67.3116 993.211L66.5118 994.153L65.7194 995.102L64.9346 996.06L64.1571 997.026L63.3873 998.003L62.6249 998.99L61.8701 999.989L61.1228 1001L60.383 1002.03L59.6506 1003.07L58.9256 1004.12L58.208 1005.19L57.4977 1006.28L56.7945 1007.39L56.0985 1008.52L55.4094 1009.67L54.7272 1010.84L54.0518 1012.04L53.383 1013.26L52.7207 1014.5L52.0647 1015.78L51.4149 1017.08L50.7711 1018.42L50.133 1019.78L49.5006 1021.19L48.8735 1022.62L48.2516 1024.1L47.6346 1025.62L47.0222 1027.18L46.4143 1028.78L45.8104 1030.43L45.2104 1032.13L44.6139 1033.88L44.0205 1035.69L43.43 1037.55L42.8419 1039.48L41.0114 1039.11L39.1214 1038.57L37.2788 1038.07L35.4807 1037.6L33.7246 1037.16L32.0081 1036.75L30.3288 1036.37L28.6847 1036.02L27.0738 1035.69L25.4939 1035.4L23.9434 1035.13L22.4204 1034.88L20.9233 1034.65L19.4506 1034.45L18.0006 1034.28L16.572 1034.12L15.1635 1033.98L13.7736 1033.87L12.4011 1033.77L11.0448 1033.69L9.70368 1033.63L8.37647 1033.59L7.06216 1033.56L5.75973 1033.56L4.4682 1033.56L3.18662 1033.59L1.91412 1033.62L0.649773 1033.67L-0.607203 1033.74L-1.85769 1033.82L-3.10241 1033.91L-4.34216 1034.01L-5.57764 1034.13L-6.80957 1034.25L-8.0386 1034.39L-9.2654 1034.54L-10.4906 1034.7L-11.7148 1034.87L-12.9386 1035.04L-14.1626 1035.23L-15.3873 1035.42L-16.6131 1035.62L-17.8407 1035.83L-19.0705 1036.04L-20.3029 1036.26L-21.5385 1036.48L-22.7775 1036.71L-24.0205 1036.94L-25.2677 1037.18L-26.5196 1037.42L-27.7765 1037.66L-29.0386 1037.91L-30.3064 1038.15L-31.58 1038.4L-32.8597 1038.65L-34.1457 1038.89L-35.4383 1039.14L-36.7376 1039.38L-38.0438 1039.62L-39.3571 1039.86L-40.6774 1040.1L-42.0049 1040.33L-43.3398 1040.55L-44.6819 1040.77L-46.0313 1040.98L-47.3881 1041.19L-48.7521 1041.39L-50.1233 1041.57L-51.5016 1041.75L-52.8869 1041.92L-54.279 1042.08L-55.6777 1042.23L-57.0829 1042.36L-58.4943 1042.48L-59.9116 1042.59L-61.3345 1042.68L-62.7628 1042.76L-64.1961 1042.82L-65.634 1042.87L-67.076 1042.9L-68.5219 1042.91L-69.9712 1042.9L-71.4233 1042.87L-72.8777 1042.82L-74.3341 1042.75L-75.7918 1042.66L-77.2502 1042.54L-78.7088 1042.41L-80.167 1042.25L-81.6241 1042.07L-83.0796 1041.86L-84.5329 1041.63L-85.9831 1041.38L-87.4298 1041.09L-88.8722 1040.79L-90.3097 1040.46L-91.7415 1040.1L-93.167 1039.71L-94.5856 1039.3L-95.9965 1038.86L-97.3991 1038.4L-98.7928 1037.9L-100.177 1037.38L-101.551 1036.84L-102.913 1036.26L-104.265 1035.66L-105.604 1035.04L-106.931 1034.38L-108.244 1033.7L-109.544 1033L-110.83 1032.27L-112.1 1031.51L-113.356 1030.73L-114.596 1029.92L-115.821 1029.09L-117.029 1028.24L-118.22 1027.36L-119.395 1026.46L-120.552 1025.54L-121.693 1024.6L-122.816 1023.63L-123.921 1022.65L-125.009 1021.65L-126.079 1020.62L-127.131 1019.58L-128.166 1018.53L-129.183 1017.45L-130.183 1016.36L-131.166 1015.26L-132.131 1014.14L-133.079 1013L-134.011 1011.86L-134.927 1010.7L-135.826 1009.53L-136.71 1008.35L-137.579 1007.16L-138.432 1005.96L-139.272 1004.75L-140.097 1003.53L-140.909 1002.3L-141.709 1001.07L-142.496 999.833L-143.272 998.589L-144.036 997.34L-144.79 996.086L-145.535 994.828L-146.27 993.567L-146.997 992.302L-147.717 991.035L-148.43 989.765L-149.137 988.494L-149.838 987.221L-150.535 985.946L-151.229 984.671L-151.92 983.395L-152.608 982.119L-153.296 980.843L-153.984 979.566L-154.671 978.289L-155.357 977.011L-156.041 975.731L-156.722 974.449L-157.4 973.163L-158.074 971.875L-158.744 970.582L-159.408 969.286L-160.066 967.984L-160.717 966.678L-161.361 965.366L-161.996 964.048L-162.621 962.724L-163.237 961.394L-163.841 960.058L-164.434 958.714L-165.015 957.364L-165.582 956.007L-166.135 954.643L-166.673 953.271L-167.195 951.893L-167.7 950.507L-168.188 949.115L-168.658 947.715L-169.109 946.308L-169.54 944.895L-169.95 943.475L-170.34 942.048L-170.707 940.616L-171.051 939.177L-171.373 937.733L-171.67 936.284L-171.942 934.829L-172.19 933.37L-172.411 931.907L-172.607 930.44L-172.775 928.97L-172.917 927.497L-173.03 926.022L-173.116 924.545L-173.174 923.067L-173.202 921.588L-173.203 920.109L-173.174 918.63L-173.116 917.152L-173.028 915.675L-172.912 914.201L-172.766 912.729L-172.591 911.261L-172.387 909.796L-172.154 908.336L-171.892 906.881L-171.601 905.431L-171.282 903.987L-170.936 902.551L-170.561 901.121L-170.16 899.699L-169.732 898.285L-169.277 896.88L-168.797 895.484L-168.292 894.098L-167.762 892.721L-167.208 891.355L-166.63 890L-166.031 888.656L-165.409 887.323L-164.766 886.003L-164.102 884.694L-163.419 883.397L-162.717 882.113L-161.997 880.842L-161.259 879.583L-160.505 878.338L-159.735 877.105L-158.95 875.885L-158.151 874.679L-157.339 873.486L-156.514 872.306L-155.677 871.139L-154.83 869.985L-153.972 868.843L-153.106 867.715L-152.23 866.599L-151.347 865.496L-150.457 864.405L-149.561 863.326L-148.659 862.258L-147.752 861.203L-146.841 860.158L-145.927 859.124L-145.01 858.101L-144.091 857.088L-143.17 856.085L-142.248 855.091L-141.325 854.106L-140.403 853.13L-139.481 852.162L-138.561 851.201L-137.642 850.248L-136.725 849.302L-135.811 848.362L-134.899 847.427L-133.992 846.498L-133.087 845.573L-132.187 844.653L-131.292 843.735L-130.401 842.821L-129.515 841.91L-128.635 841L-127.76 840.091L-126.891 839.182L-126.028 838.274L-125.171 837.365L-124.321 836.454L-123.478 835.541L-122.641 834.625L-121.811 833.706L-120.989 832.783L-120.173 831.854L-119.365 830.92L-118.564 829.979L-117.77 829.031L-116.984 828.075L-116.206 827.11L-115.435 826.135L-114.671 825.15L-113.915 824.152L-113.166 823.143L-112.425 822.12L-111.692 821.083L-110.966 820.03L-110.247 818.961L-109.535 817.874L-108.831 816.769L-108.134 815.644L-107.444 814.498L-106.761 813.33L-106.084 812.138L-105.414 810.922L-104.751 809.679L-104.094 808.409L-103.443 807.11L-102.798 805.78L-102.159 804.418L-101.526 803.021L-100.898 801.589L-100.275 800.119L-99.6577 798.609L-99.0446 797.057L-98.436 795.46L-97.8315 793.817L-97.2309 792.126L-96.6338 790.382L-96.04 788.584L-95.449 786.728L-94.8605 784.812L-93.2421 784.783L-91.3444 785.328L-89.4943 785.837L-87.6893 786.313L-85.9267 786.758L-84.204 787.171L-82.519 787.555L-80.8695 787.91L-79.2534 788.238L-77.6687 788.539L-76.1136 788.815L-74.5863 789.066L-73.0853 789.293L-71.6087 789.497L-70.1553 789.679L-68.7234 789.839L-67.3117 789.978L-65.9189 790.098L-64.5437 790.197L-63.185 790.278L-61.8415 790.341L-60.5121 790.386L-59.1958 790.414L-57.8916 790.426L-56.5984 790.421L-55.3153 790.401L-54.0414 790.366L-52.7758 790.317L-51.5177 790.254L-50.2662 790.177L-49.0206 790.088L-47.7801 789.986L-46.544 789.873L-45.3116 789.748L-44.0821 789.612L-42.855 789.465L-41.6296 789.309L-40.4053 789.143L-39.1814 788.968L-37.9575 788.785L-36.733 788.594L-35.5074 788.395L-34.2801 788.189L-33.0507 787.977L-31.8187 787.759L-30.5837 787.536L-29.3452 787.307L-28.1029 787.075L-26.8564 786.838L-25.6052 786.599L-24.3492 786.357L-23.0879 786.112L-21.8211 785.867L-20.5484 785.62L-19.2697 785.373L-17.9847 785.127L-16.6931 784.881L-15.3949 784.637L-14.0898 784.396L-12.7777 784.157L-11.4586 783.922L-10.1322 783.691L-8.79848 783.465L-7.45752 783.245L-6.10923 783.032L-4.75362 782.825L-3.39076 782.626L-2.02068 782.436L-0.643521 782.255L0.74067 782.085L2.13169 781.924L3.52936 781.776L4.93353 781.639L6.34392 781.516L7.76031 781.406L9.18239 781.311L10.6098 781.231L12.0423 781.166L13.4795 781.119L14.9209 781.089L16.3662 781.076L17.815 781.083L19.2666 781.108L20.7208 781.154L22.1769 781.221L23.6344 781.308L25.0927 781.418L26.5513 781.55L28.0096 781.705L29.467 781.883L30.9228 782.085L32.3764 782.312L33.8272 782.564L35.2745 782.841L36.7176 783.143L38.1559 783.471L39.5887 783.826L41.0153 784.207L42.435 784.614L43.8472 785.048L45.2512 785.51L46.6463 785.998L48.0319 786.513L49.4073 787.055L50.772 787.624L52.1252 788.22L53.4665 788.843L54.7952 789.492L56.1108 790.168L57.4127 790.869L58.7006 791.596L59.9738 792.349L61.232 793.127L62.4747 793.929L63.7015 794.756L64.9121 795.606L66.1063 796.479L67.2836 797.375L68.444 798.293L69.5871 799.233L70.7128 800.193L71.821 801.174L72.9115 802.174L73.9845 803.193L75.0397 804.23L76.0773 805.285L77.0973 806.356L78.0998 807.444L79.085 808.547L80.0531 809.664L81.0042 810.795L81.9387 811.94L82.8568 813.096L83.7588 814.265L84.6451 815.444L85.5161 816.634L86.3722 817.833L87.2138 819.042L88.0415 820.258L88.8558 821.482L89.6572 822.713L90.4463 823.951L91.2237 825.194L91.9899 826.442L92.7457 827.696L93.4916 828.953L94.2285 830.214L94.9569 831.478L95.6777 832.745L96.3916 834.014L97.0993 835.285L97.8016 836.558L98.4994 837.832L99.1934 839.107L99.8846 840.383L100.574 841.659L101.262 842.936L101.481 843.342Z" fill="#FEEFDD"/>
<path fill-rule="evenodd" clip-rule="evenodd" d="M1575.12 89.4358L1576.24 93.2001L1577.28 96.9919L1578.23 100.809L1579.11 104.651L1579.91 108.515L1580.64 112.399L1581.28 116.302L1581.84 120.222L1582.33 124.158L1582.73 128.107L1583.06 132.068L1583.31 136.04L1583.48 140.02L1583.58 144.009L1583.6 148.002L1583.54 152.001L1583.41 156.002L1583.2 160.005L1582.93 164.009L1582.57 168.011L1582.15 172.011L1581.65 176.008L1581.09 180L1580.45 183.987L1579.75 187.966L1578.98 191.938L1578.14 195.9L1577.23 199.853L1576.26 203.795L1575.23 207.724L1574.13 211.642L1572.97 215.545L1571.74 219.434L1570.46 223.307L1569.11 227.165L1567.71 231.005L1566.24 234.828L1564.72 238.632L1563.14 242.417L1561.5 246.182L1559.81 249.926L1558.06 253.649L1556.25 257.35L1554.39 261.029L1552.48 264.684L1550.52 268.315L1548.5 271.922L1546.43 275.504L1544.31 279.059L1542.14 282.589L1539.91 286.091L1537.64 289.565L1535.32 293.011L1532.95 296.429L1530.54 299.816L1528.07 303.174L1525.56 306.5L1523 309.796L1520.4 313.059L1517.75 316.289L1515.05 319.485L1512.31 322.648L1509.52 325.776L1506.69 328.868L1503.82 331.924L1500.91 334.943L1497.95 337.925L1494.94 340.868L1491.9 343.772L1488.82 346.637L1485.69 349.461L1482.53 352.243L1479.32 354.983L1476.07 357.68L1472.79 360.334L1469.46 362.943L1466.1 365.506L1462.7 368.023L1459.26 370.492L1455.79 372.914L1452.28 375.286L1448.73 377.608L1445.15 379.878L1441.54 382.097L1437.89 384.262L1434.2 386.371L1430.49 388.425L1426.74 390.42L1422.96 392.357L1419.14 394.232L1415.3 396.045L1411.42 397.793L1407.52 399.475L1403.59 401.089L1399.63 402.634L1395.64 404.107L1391.62 405.506L1387.59 406.829L1383.52 408.075L1379.44 409.242L1375.33 410.328L1371.2 411.33L1367.06 412.248L1362.89 413.079L1358.72 413.821L1354.52 414.473L1350.32 415.033L1346.11 415.5L1341.88 415.872L1337.65 416.148L1333.42 416.327L1329.19 416.407L1324.95 416.387L1320.72 416.267L1316.5 416.046L1312.28 415.723L1308.07 415.298L1303.87 414.771L1299.69 414.142L1295.53 413.41L1291.38 412.577L1287.26 411.642L1283.17 410.607L1279.1 409.472L1275.06 408.239L1271.05 406.909L1267.08 405.484L1263.15 403.965L1259.25 402.354L1255.4 400.655L1251.59 398.868L1247.82 396.996L1244.1 395.042L1240.43 393.008L1236.82 390.896L1233.25 388.71L1229.74 386.451L1226.28 384.124L1222.88 381.73L1219.53 379.273L1216.25 376.756L1213.02 374.181L1209.85 371.553L1206.75 368.873L1203.7 366.145L1200.71 363.373L1197.79 360.558L1194.93 357.706L1192.13 354.818L1189.39 351.897L1186.71 348.947L1184.09 345.972L1181.53 342.972L1179.03 339.953L1176.59 336.917L1174.2 333.865L1171.88 330.802L1169.61 327.73L1167.39 324.652L1165.23 321.569L1163.12 318.486L1161.06 315.402L1159.05 312.322L1157.09 309.247L1155.18 306.179L1153.31 303.12L1151.48 300.072L1149.7 297.037L1147.95 294.016L1146.25 291.011L1144.58 288.024L1142.94 285.055L1141.34 282.107L1139.77 279.18L1138.22 276.275L1136.7 273.393L1135.21 270.535L1133.74 267.701L1132.29 264.893L1130.86 262.11L1129.45 259.353L1128.05 256.621L1126.67 253.915L1125.3 251.235L1123.93 248.581L1122.58 245.951L1121.24 243.346L1119.9 240.766L1118.56 238.208L1117.23 235.674L1115.91 233.161L1114.58 230.669L1113.25 228.198L1111.93 225.745L1110.6 223.31L1109.27 220.892L1107.94 218.489L1106.6 216.1L1105.27 213.725L1103.92 211.361L1102.58 209.007L1101.23 206.662L1099.87 204.326L1098.51 201.995L1097.15 199.67L1095.78 197.348L1094.41 195.029L1093.03 192.711L1091.65 190.393L1090.26 188.074L1088.87 185.753L1087.48 183.428L1086.08 181.098L1084.69 178.763L1083.28 176.42L1081.88 174.068L1080.48 171.707L1079.07 169.335L1077.67 166.951L1076.27 164.553L1074.88 162.142L1073.49 159.715L1072.11 157.272L1070.73 154.811L1069.37 152.332L1068.01 149.835L1066.67 147.317L1065.35 144.779L1064.04 142.22L1062.75 139.639L1061.49 137.037L1060.24 134.411L1059.03 131.763L1057.84 129.093L1056.68 126.399L1055.55 123.682L1054.45 120.943L1053.4 118.181L1052.38 115.397L1051.4 112.59L1050.46 109.763L1049.58 106.915L1048.73 104.046L1047.94 101.159L1047.2 98.2529L1046.51 95.3297L1045.88 92.3903L1045.31 89.4358L1044.79 86.4675L1044.34 83.4868L1043.94 80.495L1043.62 77.4937L1043.36 74.4845L1043.17 71.4691L1043.05 68.4494L1043 65.4271L1043.03 62.4043L1043.13 59.3829L1043.31 56.3652L1043.56 53.3532L1043.9 50.3492L1044.31 47.3555L1044.81 44.3744L1045.39 41.4082L1046.06 38.4594L1046.8 35.5304L1047.63 32.6236L1048.54 29.7414L1049.54 26.8864L1050.62 24.0608L1051.79 21.2671L1053.03 18.5076L1054.36 15.7848L1055.77 13.1009L1057.26 10.4581L1058.83 7.85857L1060.48 5.30453L1062.2 2.79796L1064 0.340832L1065.88 -2.06496L1067.82 -4.41763L1069.83 -6.71545L1071.91 -8.95681L1074.06 -11.1402L1076.27 -13.2642L1078.54 -15.3274L1080.87 -17.3286L1083.25 -19.2667L1085.69 -21.1407L1088.18 -22.9495L1090.72 -24.6922L1093.31 -26.3682L1095.94 -27.9767L1098.61 -29.5171L1101.32 -30.989L1104.06 -32.3922L1106.84 -33.7264L1109.65 -34.9918L1112.49 -36.1886L1115.35 -37.317L1118.23 -38.3776L1121.13 -39.3711L1124.04 -40.2984L1126.97 -41.1603L1129.91 -41.9581L1132.85 -42.6931L1135.8 -43.3666L1138.74 -43.9804L1141.69 -44.536L1144.63 -45.0354L1147.56 -45.4807L1150.48 -45.8738L1153.38 -46.2171L1156.27 -46.5128L1159.14 -46.7635L1162 -46.9716L1164.82 -47.1398L1167.63 -47.2707L1170.4 -47.3672L1173.15 -47.432L1175.87 -47.4679L1178.56 -47.478L1181.21 -47.465L1183.83 -47.4319L1186.42 -47.3817L1188.97 -47.3171L1191.48 -47.2413L1193.96 -47.1569L1196.4 -47.0669L1198.8 -46.974L1201.16 -46.8809L1203.49 -46.79L1205.77 -46.7037L1208.03 -46.6242L1210.24 -46.5534L1212.42 -46.4932L1214.57 -46.4453L1216.68 -46.411L1218.76 -46.3919L1220.81 -46.3889L1222.83 -46.403L1224.82 -46.435L1226.79 -46.4856L1228.73 -46.555L1230.65 -46.6437L1232.55 -46.7517L1234.42 -46.879L1236.28 -47.0255L1238.12 -47.1907L1239.95 -47.3743L1241.76 -47.5756L1243.57 -47.7941L1245.36 -48.0289L1247.14 -48.2791L1248.92 -48.5438L1250.68 -48.8221L1252.45 -49.1127L1254.21 -49.4147L1255.97 -49.7267L1257.73 -50.0477L1259.49 -50.3765L1261.25 -50.7118L1263.01 -51.0525L1264.78 -51.3974L1266.55 -51.7454L1268.32 -52.0954L1270.1 -52.4465L1271.88 -52.7976L1273.68 -53.1478L1275.48 -53.4964L1277.28 -53.8427L1279.1 -54.1861L1280.92 -54.526L1282.75 -54.8621L1284.6 -55.1942L1286.45 -55.522L1288.31 -55.8455L1290.19 -56.1644L1292.07 -56.4785L1293.97 -56.7877L1295.88 -57.0917L1297.8 -57.3904L1299.73 -57.6836L1301.68 -57.971L1303.64 -58.2523L1305.62 -58.5273L1307.61 -58.7956L1309.61 -59.057L1311.63 -59.311L1313.67 -59.5573L1315.73 -59.7955L1317.8 -60.025L1319.88 -60.2454L1321.99 -60.4561L1324.11 -60.6565L1326.25 -60.8461L1328.41 -61.0242L1330.58 -61.19L1332.78 -61.3429L1334.99 -61.4821L1337.22 -61.6067L1339.47 -61.716L1341.74 -61.809L1344.03 -61.8849L1346.34 -61.9427L1348.67 -61.9814L1351.01 -62L1353.38 -61.9976L1355.76 -61.973L1358.16 -61.9254L1360.58 -61.8535L1363.02 -61.7563L1365.47 -61.6328L1367.94 -61.482L1370.42 -61.3031L1372.92 -61.0953L1375.44 -60.8579L1377.97 -60.5902L1380.52 -60.2917L1383.08 -59.9618L1385.66 -59.6002L1388.25 -59.2062L1390.85 -58.7797L1393.47 -58.3201L1396.1 -57.8273L1398.75 -57.3007L1401.4 -56.7403L1404.07 -56.1456L1406.76 -55.5164L1409.46 -54.8524L1412.17 -54.1532L1414.89 -53.4187L1417.63 -52.6485L1420.38 -51.8422L1423.14 -50.9995L1425.91 -50.1201L1428.7 -49.2035L1431.49 -48.2493L1434.3 -47.2571L1437.12 -46.2264L1439.96 -45.1566L1442.8 -44.0472L1445.66 -42.8977L1448.52 -41.7074L1451.39 -40.4756L1454.28 -39.2018L1457.17 -37.885L1460.07 -36.5247L1462.98 -35.1201L1465.89 -33.6702L1468.81 -32.1744L1471.73 -30.6318L1474.65 -29.0414L1477.58 -27.4024L1480.5 -25.714L1483.42 -23.9752L1486.34 -22.1851L1489.26 -20.3428L1492.16 -18.4476L1495.06 -16.4986L1497.94 -14.4951L1500.81 -12.4366L1503.67 -10.3225L1506.5 -8.15224L1509.32 -5.92557L1512.11 -3.64214L1514.88 -1.30175L1517.62 1.09574L1520.33 3.55037L1523.02 6.0621L1525.66 8.63081L1528.27 11.2563L1530.85 13.9383L1533.38 16.6763L1535.87 19.4701L1538.32 22.319L1540.72 25.2224L1543.07 28.1797L1545.37 31.19L1547.62 34.2526L1549.82 37.3666L1551.96 40.5309L1554.04 43.7446L1556.06 47.0065L1558.02 50.3155L1559.92 53.6704L1561.75 57.0699L1563.52 60.5126L1565.22 63.9973L1566.85 67.5223L1568.42 71.0863L1569.9 74.6877L1571.32 78.325L1572.66 81.9966L1573.93 85.7008L1575.12 89.4358Z" fill="#FEEFDD"/>
<path d="M31.5074 124.329C24.7262 118.768 15 105.69 15 74.0312C15 53.2612 8.41248 36.87 -2.05003 24.3925C-12.28 12.1475 -25.5325 4.43625 -37.8938 -0.504375C-48.6942 -4.69119 -59.9621 -7.55373 -71.4513 -9.02938C-76.6135 -9.69723 -81.8062 -10.1046 -87.0094 -10.25C-130.913 -10.25 -164.316 1.7625 -189.309 20.6919C-214.129 39.4856 -229.687 64.3244 -239.433 88.4462C-249.159 112.529 -253.286 136.399 -255.029 154.089C-261.384 218.937 -247.241 294.945 -193.262 336.892C-154.338 367.117 -102.103 377.25 -47.9494 377.25C1.94122 377.25 46.5231 366.109 79.015 342.084C112.088 317.614 131.25 280.762 131.269 233.1C131.269 188.15 110.189 161.8 88.5087 147.211C79.6225 141.29 69.9245 136.688 59.7175 133.551C50.4175 130.684 39.2574 130.703 31.5074 124.329Z" fill="#FEEFDD"/>
<ellipse cx="621" cy="1425" rx="1400" ry="506" fill="#FFC4AD"/>
<path d="M1641.18 1349.71C1446.76 1083.28 754 922 754 922C1209.49 931.697 1582.72 1046.19 1710.22 1108.29C1710.22 1108.29 1835.6 1616.13 1641.18 1349.71Z" fill="#FAAA8C"/>
</svg>
