<svg width="40" height="40" viewBox="0 0 40 40" fill="none" xmlns="http://www.w3.org/2000/svg">
<g id="Logo_baru_BRImo 1" clip-path="url(#clip0_48_2380)">
<path id="path4" d="M40 27.4871C40 27.9654 40 28.4428 39.9964 28.9202C39.994 29.3229 39.9894 29.7255 39.979 30.1272C39.9679 31.0075 39.8906 31.8857 39.7477 32.7543C39.599 33.6239 39.3216 34.4657 38.9242 35.2527C38.1188 36.834 36.8333 38.1195 35.2521 38.925C34.4655 39.3219 33.624 39.5991 32.7556 39.7477C31.886 39.8911 31.0078 39.9685 30.1278 39.979C29.7255 39.9894 29.3232 39.9954 28.9208 39.9972C28.4426 40 27.9652 40 27.4878 40H12.5122C12.0348 40 11.5574 40 11.0792 39.9976C10.6768 39.9961 10.2745 39.9903 9.87224 39.9802C8.99171 39.969 8.11329 39.8914 7.24443 39.7481C6.37574 39.6002 5.53401 39.3219 4.74792 38.9254C3.16689 38.1201 1.88142 36.8348 1.07577 35.2539C0.678508 34.4664 0.400961 33.6241 0.252302 32.7547C0.109399 31.8863 0.0320798 31.0084 0.0209999 30.1285C0.0105599 29.7258 0.00535997 29.3232 0.00359998 28.9206C2.45085e-10 28.4423 0 27.9658 0 27.4875V12.5129C0 12.0346 2.45085e-10 11.5564 0.00359998 11.0781C0.00519998 10.6763 0.0105599 10.2737 0.0209999 9.87193C0.0320798 8.99197 0.109411 8.11409 0.252302 7.24573C0.400997 6.37613 0.678388 5.53435 1.07577 4.74649C1.88122 3.16521 3.16672 1.87964 4.74792 1.07416C5.53432 0.6775 6.37544 0.40024 7.24356 0.251512C8.11312 0.108896 8.99137 0.031504 9.87137 0.0202C10.274 0.00976 10.6766 0.00456 11.0783 0.0028C11.5566 0 12.0348 0 12.5114 0H27.4869C27.9652 0 28.4434 0 28.9208 0.0028C29.3232 0.0044 29.7255 0.01008 30.1278 0.0202C31.0078 0.03152 31.886 0.108896 32.7547 0.251512C33.6243 0.400216 34.4651 0.67762 35.2521 1.07416C36.8337 1.8794 38.1195 3.16501 38.9251 4.74649C39.322 5.53373 39.5993 6.37579 39.7477 7.24486C39.8906 8.11351 39.9679 8.99168 39.979 9.87193C39.9894 10.2746 39.9946 10.6772 39.9964 11.0789C40 11.5572 40 12.0346 40 12.512L40 27.4871Z" fill="#00529C"/>
<g id="g4225">
<g id="text1310">
<path id="path2616" d="M12.3225 32.4837V27.9676C12.3225 27.5873 12.3791 27.2175 12.4922 26.8584C12.7595 26.0132 13.1862 25.3371 13.7723 24.8301C14.4099 24.2702 15.1399 23.9902 15.9625 23.9902C16.8468 23.9902 17.6797 24.3653 18.4611 25.1153C19.1706 24.3653 19.9984 23.9902 20.9444 23.9902C21.767 23.9902 22.5022 24.2649 23.1499 24.8142C23.7977 25.3636 24.2296 26.0608 24.4455 26.9059C24.5484 27.3073 24.5998 27.6348 24.5998 27.8884V32.4837H22.3325V28.0151C22.3119 27.8461 22.3016 27.751 22.3016 27.7299C22.2297 27.3602 22.0806 27.0432 21.8544 26.7791C21.5973 26.4833 21.2991 26.3354 20.9598 26.3354C20.6205 26.3354 20.3223 26.4833 20.0652 26.7791C19.8493 27.0432 19.7053 27.3602 19.6333 27.7299C19.6231 27.8038 19.6128 27.8989 19.6025 28.0151V32.4837H17.3198V27.9676C17.2992 27.8091 17.2889 27.7246 17.2889 27.7141C17.217 27.3443 17.0679 27.0274 16.8417 26.7633C16.5846 26.4781 16.2864 26.3354 15.9471 26.3354C15.5563 26.3354 15.2273 26.5309 14.96 26.9217C14.7132 27.2704 14.5898 27.6559 14.5898 28.0785V32.4837H12.3225Z" fill="#F36F21"/>
<path id="path2618" d="M25.155 28.237C25.155 27.075 25.556 26.082 26.3581 25.258C27.1601 24.434 28.1215 24.022 29.2423 24.022C30.3837 24.022 31.3605 24.434 32.1728 25.258C32.9851 26.082 33.3913 27.0803 33.3913 28.2529C33.3913 29.4043 32.9851 30.3974 32.1728 31.2319C31.3708 32.0665 30.4042 32.4838 29.2732 32.4838C28.1318 32.4838 27.1601 32.0718 26.3581 31.2478C25.556 30.4132 25.155 29.4096 25.155 28.237ZM27.4223 28.237C27.4223 28.7652 27.6023 29.2142 27.9621 29.5839C28.322 29.9537 28.759 30.1385 29.2732 30.1385C29.777 30.1385 30.2089 29.9537 30.5688 29.5839C30.9389 29.2036 31.124 28.7547 31.124 28.237C31.124 27.7194 30.9389 27.2757 30.5688 26.906C30.1986 26.5362 29.7616 26.3513 29.2577 26.3513C28.7539 26.3513 28.322 26.5362 27.9621 26.906C27.6023 27.2757 27.4223 27.7194 27.4223 28.237Z" fill="#F36F21"/>
</g>
<path id="path6" d="M15.8215 13.8912C15.9154 13.7968 16.0264 13.6754 16.1544 13.5267C16.2821 13.3781 16.4031 13.2025 16.5174 12.9998C16.6317 12.797 16.7293 12.5712 16.8098 12.3211C16.8907 12.0714 16.9311 11.8046 16.9311 11.521C16.9311 10.9675 16.8369 10.451 16.6487 9.97138C16.4602 9.49209 16.1711 9.07321 15.781 8.71509C15.3909 8.35764 14.9036 8.07706 14.3183 7.87433C13.7334 7.67196 13.0505 7.57058 12.2707 7.57058H12.2493H10.0072H9.42363H7.12604V10.1529V19.0929V21.7514H12.7751C13.5954 21.7514 14.3113 21.64 14.9237 21.4171C15.5353 21.1943 16.0434 20.8872 16.4468 20.4955C16.8502 20.1038 17.1494 19.648 17.3446 19.1281C17.5395 18.6082 17.637 18.0511 17.637 17.4567C17.637 16.6599 17.4555 15.951 17.0926 15.3294C16.7292 14.7085 16.3055 14.2289 15.8215 13.8912ZM13.3237 10.169C13.5138 10.2419 13.6726 10.3365 13.7966 10.4556C14.1179 10.7651 14.2786 11.135 14.2786 11.5652C14.2786 11.9556 14.2114 12.2781 14.0777 12.5335C13.9437 12.7893 13.8097 12.9843 13.676 13.1185H9.74894V10.0015H12.1899C12.6475 10.0015 13.0242 10.0583 13.3237 10.169ZM12.9162 15.5728C13.6272 15.5728 14.1539 15.7577 14.4969 16.1269C14.8194 16.4904 14.9819 16.9193 14.9819 17.4157C14.9819 17.9272 14.7977 18.3639 14.4294 18.7271C14.0607 19.0902 13.455 19.2721 12.6111 19.2721H12.2959H9.74894V15.5728H12.9162ZM27.2146 15.6436C27.6381 15.3533 27.9914 15.0156 28.2738 14.6307C28.5562 14.2457 28.7645 13.8205 28.8992 13.3546C29.0336 12.8884 29.101 12.4125 29.101 11.9261C29.101 11.2914 28.9964 10.7075 28.7882 10.1738C28.5793 9.64046 28.2668 9.18132 27.85 8.79632C27.4328 8.41136 26.9118 8.11095 26.2864 7.89482C25.661 7.679 24.938 7.57059 24.1178 7.57059H24.044H18.6102H18.5594V21.7515H21.233V16.4844H22.7237L26.4108 21.7515H29.5447L25.732 16.3021C26.2965 16.1537 26.7908 15.9342 27.2146 15.6436ZM24.138 10.0016C24.2978 10.0016 24.4574 10.0117 24.6159 10.0318C25.0926 10.1039 25.482 10.2748 25.7821 10.5463C26.1906 10.9165 26.3948 11.3703 26.3948 11.908C26.395 12.1758 26.3508 12.4418 26.2641 12.695C26.1785 12.9482 26.0379 13.179 25.8523 13.3706C25.6645 13.566 25.4235 13.7237 25.129 13.8449C24.8342 13.9661 24.4792 14.0265 24.0641 14.0265H21.2331V10.0016L24.138 10.0016ZM30.4889 7.57059V7.57435L30.4084 7.57059H30.3857V7.57161V12.7696V16.4941V21.7514H33.1118V7.57056L30.4889 7.57059Z" fill="white"/>
</g>
</g>
<defs>
<clipPath id="clip0_48_2380">
<rect width="40" height="40" fill="white"/>
</clipPath>
</defs>
</svg>
