<svg width="105" height="30" viewBox="0 0 105 30" fill="none" xmlns="http://www.w3.org/2000/svg">
<g id="Logo_dana_blue 1" clip-path="url(#clip0_48_2337)">
<path id="Vector" fill-rule="evenodd" clip-rule="evenodd" d="M41.5052 22.7541C43.5008 22.8969 45.8262 21.3478 46.6453 20.4633C49.4929 17.3842 49.5617 12.9317 46.6948 9.70705C45.6283 8.50672 43.1215 7.18004 41.5355 7.36682H35.7935V22.7349L41.519 22.7541H41.5052ZM39.0314 19.425V10.6766C39.9302 10.6177 40.8319 10.6177 41.7306 10.6766C42.4378 10.7586 43.1124 11.0195 43.6904 11.4348C46.9889 13.6871 45.6145 19.057 41.6757 19.4168C40.7954 19.4786 39.912 19.4814 39.0314 19.425Z" fill="#008CEB"/>
<path id="Vector_2" fill-rule="evenodd" clip-rule="evenodd" d="M91.9135 22.7815H95.1871V19.4689H101.682L101.702 22.765H104.975V17.3045C104.975 15.6565 105.113 13.6019 104.7 12.1104C104.326 10.745 103.515 9.53945 102.391 8.6777C101.267 7.81595 99.8913 7.34528 98.4745 7.3375C97.0578 7.32972 95.6774 7.78525 94.5439 8.63461C93.4104 9.48396 92.586 10.6805 92.1966 12.0417C91.7568 13.514 91.9052 15.6262 91.9052 17.2606C91.9052 19.1064 91.886 20.9632 91.9052 22.809L91.9135 22.7815ZM95.1899 16.1371C95.1707 14.7638 95.025 13.2943 95.6709 12.2368C95.9544 11.7499 96.362 11.3468 96.852 11.0684C97.3421 10.79 97.8972 10.6463 98.4608 10.6519C99.0216 10.656 99.5717 10.8055 100.057 11.0857C100.543 11.3659 100.948 11.7672 101.232 12.2505C101.869 13.3492 101.718 14.7226 101.702 16.1399L95.1899 16.1371Z" fill="#008CEB"/>
<path id="Vector_3" fill-rule="evenodd" clip-rule="evenodd" d="M54.4763 22.7789H57.739C57.739 22.0867 57.6511 19.969 57.7693 19.4663H64.2397L64.2617 22.7761H67.5299C67.5134 20.9413 67.5299 19.1092 67.5299 17.2826C67.5299 15.717 67.6755 13.4756 67.255 12.0858C66.8781 10.7221 66.0658 9.51888 64.9415 8.65914C63.8173 7.79939 62.4427 7.33023 61.027 7.32308C59.6114 7.31593 58.2321 7.77117 57.0992 8.61951C55.9663 9.46786 55.1418 10.6628 54.7512 12.0226C54.3142 13.4509 54.4626 15.6346 54.4626 17.225C54.4626 19.0598 54.4213 20.9413 54.4626 22.7706L54.4763 22.7789ZM57.7418 16.1372C57.7198 14.7639 57.5796 13.2751 58.2255 12.2396C58.509 11.754 58.9149 11.3511 59.4027 11.0711C59.8905 10.7911 60.4433 10.6438 61.0058 10.6438C61.5684 10.6438 62.1212 10.7911 62.609 11.0711C63.0968 11.3511 63.5027 11.754 63.7861 12.2396C64.4266 13.3383 64.2727 14.7337 64.2617 16.1317L57.7418 16.1372Z" fill="#008CEB"/>
<path id="Vector_4" fill-rule="evenodd" clip-rule="evenodd" d="M73.2719 13.3684L73.2251 15.6565C73.2251 17.5792 73.1317 21.1692 73.2251 22.7321H76.4246C76.4988 21.6334 76.3092 13.8299 76.5098 13.5799C76.5098 12.0637 78.0958 10.6519 79.6956 10.6464C80.5271 10.6414 81.3278 10.9606 81.9275 11.5363C82.3343 11.9071 82.9582 12.7531 82.9472 13.6074C83.0957 13.6925 82.9775 21.8476 83.0242 22.7513H86.2264L86.2017 13.4261C86.2814 12.6955 85.8416 11.5665 85.5585 10.9952C85.0335 9.90662 84.2139 8.98668 83.1926 8.33957C82.1714 7.69245 80.9892 7.34402 79.7799 7.33373C78.5707 7.32344 77.3827 7.6517 76.3506 8.28134C75.3184 8.91098 74.4833 9.81683 73.9398 10.8963C73.6649 11.4594 73.2031 12.6185 73.2719 13.3684Z" fill="#008CEB"/>
<path id="Vector_5" d="M15.0106 30C23.3007 30 30.0212 23.2843 30.0212 15C30.0212 6.71573 23.3007 0 15.0106 0C6.72048 0 0 6.71573 0 15C0 23.2843 6.72048 30 15.0106 30Z" fill="#008CEB"/>
<path id="Vector_6" d="M23.7569 15.0631V19.2848C23.7569 19.5595 23.6387 19.6172 23.4078 19.4826C23.099 19.2974 22.7775 19.134 22.4458 18.9937C21.444 18.5948 20.3589 18.4504 19.2875 18.5734C18.1182 18.725 16.9707 19.0126 15.8682 19.4304C14.7687 19.8012 13.6912 20.2022 12.5697 20.5126C11.6409 20.7883 10.6742 20.9153 9.7056 20.8889C8.63216 20.8473 7.58891 20.5222 6.68204 19.9468C6.5681 19.8782 6.47461 19.7804 6.41129 19.6635C6.34797 19.5466 6.31713 19.4149 6.32197 19.2821C6.32197 16.517 6.32197 13.7519 6.32197 10.9869C6.32197 10.8523 6.32197 10.693 6.44291 10.6243C6.56385 10.5556 6.68754 10.6683 6.79199 10.7369C7.77676 11.4023 8.9431 11.7477 10.1317 11.7258C10.9815 11.6909 11.822 11.5346 12.6275 11.2616C13.7709 10.9072 14.8759 10.4375 16.0001 10.0393C16.8752 9.70318 17.7725 9.42785 18.6856 9.21523C19.4692 9.03185 20.2823 9.01259 21.0737 9.15867C21.8652 9.30474 22.6178 9.61298 23.2841 10.064C23.4369 10.1575 23.562 10.29 23.6465 10.4479C23.7311 10.6057 23.772 10.7832 23.7652 10.9622C23.7652 12.3355 23.7652 13.7089 23.7652 15.0823L23.7569 15.0631Z" fill="#FEFEFE"/>
</g>
<defs>
<clipPath id="clip0_48_2337">
<rect width="105" height="30" fill="white"/>
</clipPath>
</defs>
</svg>
