<svg width="120" height="30" viewBox="0 0 120 30" fill="none" xmlns="http://www.w3.org/2000/svg">
<g id="Gopay_logo 1" clip-path="url(#clip0_48_2344)">
<g id="Group">
<path id="Vector" fill-rule="evenodd" clip-rule="evenodd" d="M0 0H120.003V30.0038H0V0Z" fill="white" fill-opacity="0.01"/>
<g id="Group_2">
<path id="Vector_2" d="M12.9736 27.8603C20.1388 27.8603 25.9473 22.1034 25.9473 15.0018C25.9473 7.90026 20.1388 2.14331 12.9736 2.14331C5.80849 2.14331 0 7.90026 0 15.0018C0 22.1034 5.80849 27.8603 12.9736 27.8603Z" fill="#00AED6"/>
<path id="Vector_3" fill-rule="evenodd" clip-rule="evenodd" d="M20.5338 14.6024C20.4909 13.8202 20.1365 13.0862 19.5474 12.5596C18.9583 12.0331 18.1821 11.7564 17.3871 11.7896H9.19261C9.12132 11.7893 9.05078 11.7753 8.98501 11.7482C8.91924 11.7211 8.85953 11.6815 8.8093 11.6317C8.75907 11.5819 8.71929 11.5229 8.69224 11.4579C8.66519 11.393 8.65139 11.3235 8.65165 11.2533C8.65165 10.957 8.89356 10.717 9.19261 10.717H17.4957C17.475 10.1767 17.2807 9.6569 16.9408 9.2323C16.6009 8.8077 16.1329 8.50023 15.6042 8.35415C13.185 7.93078 10.7089 7.93078 8.28973 8.35415C7.61584 8.52032 7.00819 8.88197 6.5456 9.39222C6.083 9.90247 5.7868 10.5378 5.69539 11.2158C5.31158 13.7395 5.31158 16.3055 5.69539 18.8292C5.83608 19.5447 6.194 20.2013 6.72184 20.7123C7.24969 21.2232 7.9226 21.5644 8.65165 21.6908C11.6546 22.0606 14.6927 22.0606 17.6957 21.6908C18.3487 21.5568 18.9424 21.2239 19.3926 20.7392C19.8428 20.2546 20.1268 19.6428 20.2043 18.9905C20.471 17.5428 20.5833 16.0726 20.5338 14.6024ZM17.8423 16.4027V16.879C17.8426 16.9492 17.8288 17.0187 17.8017 17.0837C17.7747 17.1486 17.7349 17.2076 17.6847 17.2574C17.6344 17.3072 17.5747 17.3468 17.509 17.3739C17.4432 17.401 17.3727 17.4151 17.3014 17.4153C17.2301 17.4151 17.1595 17.401 17.0938 17.3739C17.028 17.3468 16.9683 17.3072 16.9181 17.2574C16.8678 17.2076 16.828 17.1486 16.801 17.0837C16.7739 17.0187 16.7601 16.9492 16.7604 16.879V16.4027C16.6372 16.2947 16.5502 16.1525 16.511 15.9948C16.4718 15.837 16.4823 15.6713 16.5409 15.5196C16.5996 15.3678 16.7038 15.2372 16.8396 15.1451C16.9754 15.053 17.1364 15.0037 17.3014 15.0037C17.4663 15.0037 17.6273 15.053 17.7632 15.1451C17.899 15.2372 18.0031 15.3678 18.0618 15.5196C18.1205 15.6713 18.1309 15.837 18.0917 15.9948C18.0525 16.1525 17.9655 16.2947 17.8423 16.4027Z" fill="white"/>
</g>
<g id="Group_3">
<path id="Vector_4" d="M36.077 21.3964C36.6159 22.1609 37.3438 22.7777 38.192 23.1884C39.0402 23.5992 39.9807 23.7905 40.9248 23.7442C43.1858 23.7442 44.8467 22.3134 44.8467 20.3688V19.343H44.7915C43.5534 20.5432 41.8638 21.1695 40.1362 21.072C38.7925 21.1084 37.4635 20.7903 36.2869 20.1506C35.1102 19.5109 34.1289 18.573 33.4446 17.434C32.7557 16.2918 32.3862 14.9903 32.3739 13.662C32.3615 12.3336 32.7066 11.0257 33.3741 9.8712C34.0379 8.72064 35.0022 7.76581 36.1671 7.1057C37.332 6.44558 38.655 6.10421 39.999 6.11698C40.8713 6.06197 41.7458 6.18186 42.5695 6.46938C43.3933 6.75691 44.1492 7.20608 44.7915 7.78969H44.8467V6.38701H48.7135V20.3163C48.7135 24.3649 45.4753 27.1721 40.9248 27.1721C39.454 27.2503 37.9854 26.9825 36.6406 26.391C35.2958 25.7995 34.1134 24.9012 33.1912 23.7705L36.077 21.3964ZM44.6848 12.7291C44.6848 11.1107 42.8315 9.62555 40.7628 9.62555C38.1475 9.62555 36.4046 11.1914 36.4046 13.5392C36.3285 14.6531 36.7475 15.7426 37.5571 16.517C37.9554 16.8999 38.4344 17.1919 38.96 17.3724C39.4857 17.5529 40.0452 17.6174 40.599 17.5616C42.86 17.5616 44.6848 16.1589 44.6848 14.4037V12.7291ZM58.8947 5.98196C63.6072 5.98196 67.0396 9.30113 67.0396 13.5392C67.0396 17.7772 63.6072 21.0983 58.8947 21.0983C57.4971 21.1872 56.1016 20.8957 54.8611 20.2556C53.6206 19.6156 52.5831 18.6517 51.8621 17.4697C51.1367 16.2833 50.7534 14.9248 50.7534 13.5401C50.7534 12.1554 51.1367 10.7969 51.8621 9.61054C52.5831 8.42848 53.6206 7.46461 54.8611 6.82457C56.1016 6.18452 57.4971 5.893 58.8947 5.98196ZM58.8947 9.48865C57.8088 9.49955 56.7717 9.93416 56.0111 10.6971C55.2504 11.46 54.8283 12.4889 54.8374 13.5579C54.8385 14.6269 55.2703 15.6518 56.0381 16.4077C56.8059 17.1636 57.8469 17.5887 58.9328 17.5897C60.0186 17.5837 61.0577 17.1539 61.8219 16.3945C62.5862 15.6351 63.0131 14.6082 63.0091 13.5392C63.0343 12.9989 62.9448 12.4594 62.7464 11.955C62.548 11.4507 62.245 10.9926 61.8567 10.61C61.4704 10.2293 61.007 9.93283 60.4967 9.73995C59.9864 9.54707 59.4405 9.46021 58.8947 9.48865ZM69.1311 6.38701H72.9979V7.65467H73.055C73.679 7.0851 74.4121 6.64379 75.2115 6.35658C76.0109 6.06936 76.8604 5.942 77.7104 5.98196C81.8628 6.05697 85.1924 9.40989 85.2 13.526C85.2077 17.6441 81.8895 21.0082 77.737 21.0983C76.0989 21.1358 74.4988 20.6013 73.2169 19.5868H73.1617V26.7671H69.1311V6.38701ZM77.0856 9.51866C74.9598 9.51866 73.1617 11.002 73.1617 12.6222V14.4299C73.1617 16.1589 74.9065 17.5878 77.1103 17.5878C78.1936 17.5809 79.2298 17.1507 79.991 16.3918C80.7522 15.6329 81.1761 14.6075 81.1695 13.541C81.1697 13.0128 81.0643 12.4897 80.8592 12.0016C80.6541 11.5135 80.3533 11.0699 79.9741 10.6962C79.5949 10.3226 79.1446 10.0261 78.649 9.82369C78.1534 9.62131 77.6221 9.51703 77.0856 9.51678V9.51866ZM92.9659 12.1627C95.6079 11.8121 96.3984 11.4352 96.3984 10.7057C96.3984 9.76056 95.3888 9.19424 93.8383 9.19424C93.0267 9.1283 92.2179 9.35052 91.5583 9.82071C90.8987 10.2909 90.4318 10.978 90.2421 11.7577L86.4286 10.9757C86.9734 8.05972 89.9982 5.98196 93.7279 5.98196C97.9489 5.98196 100.566 8.11411 100.566 11.5945V20.6932H96.9413V19.1274H96.8841C96.2805 19.8031 95.5267 20.3325 94.6812 20.6743C93.8357 21.0162 92.9215 21.1613 92.0097 21.0983C88.823 21.0983 86.6191 19.3712 86.6191 16.8321C86.6191 14.1599 88.4173 12.7834 92.9659 12.1627ZM96.7241 13.6742H96.6708C96.3146 14.188 95.5527 14.4843 93.5926 14.8368C91.223 15.2681 90.3792 15.7257 90.3792 16.5621C90.3792 17.4265 91.0878 17.8053 92.6116 17.8053C94.9279 17.8053 96.726 16.7515 96.726 15.375L96.7241 13.6742ZM108.237 19.9112L101.564 6.38701H106.004L110.389 15.7257H110.443L114.774 6.38701H119.241L109.246 26.7708H104.806L108.237 19.9112Z" fill="black"/>
</g>
</g>
</g>
<defs>
<clipPath id="clip0_48_2344">
<rect width="120" height="30" fill="white"/>
</clipPath>
</defs>
</svg>
