<svg width="30" height="30" viewBox="0 0 30 30" fill="none" xmlns="http://www.w3.org/2000/svg">
<g id="LinkAja 1" clip-path="url(#clip0_48_2354)">
<g id="Coming-Soon">
<g id="Coming-Soon-LinkAja">
<g id="Group-26">
<g id="Group-30">
<g id="Group-3">
<g id="Mask group">
<mask id="mask0_48_2354" style="mask-type:luminance" maskUnits="userSpaceOnUse" x="0" y="0" width="30" height="30">
<g id="Group">
<path id="Vector" d="M0 0.103516H29.8967V29.8971H0V0.103516Z" fill="white"/>
</g>
</mask>
<g mask="url(#mask0_48_2354)">
<path id="Fill-1" fill-rule="evenodd" clip-rule="evenodd" d="M27.0896 29.8971H2.80696C1.26316 29.8971 -6.10352e-05 28.6384 -6.10352e-05 27.0998V2.90086C-6.10352e-05 1.36238 1.26316 0.103516 2.80696 0.103516H27.0896C28.6335 0.103516 29.8967 1.36238 29.8967 2.90086V27.0998C29.8967 28.6384 28.6335 29.8971 27.0896 29.8971Z" fill="#E82529"/>
</g>
</g>
</g>
<path id="Fill-4" fill-rule="evenodd" clip-rule="evenodd" d="M6.45023 5.71362H7.86667C7.97452 5.71362 8.05736 5.8089 8.042 5.91524L7.38418 10.4628C7.35885 10.6379 7.49515 10.7946 7.67255 10.7946H10.1574C10.2279 10.7946 10.282 10.8571 10.2718 10.9266L10.079 12.2327C10.069 12.3006 10.0106 12.351 9.94165 12.351H7.13203C6.29629 12.351 5.4948 11.6679 5.61272 10.8433L6.2747 5.86693C6.28632 5.77921 6.36137 5.71362 6.45023 5.71362Z" fill="#FEFEFE"/>
<path id="Fill-6" fill-rule="evenodd" clip-rule="evenodd" d="M11.1735 7.52816L10.5251 12.1659C10.5148 12.2395 10.5721 12.3052 10.6467 12.3052H12.0173C12.1148 12.3052 12.1974 12.2336 12.2109 12.1374L12.853 7.57502C12.8667 7.46992 12.7846 7.37671 12.6782 7.37671H11.3481C11.2601 7.37671 11.1856 7.44136 11.1735 7.52816Z" fill="#FEFEFE"/>
<path id="Fill-8" fill-rule="evenodd" clip-rule="evenodd" d="M14.0007 11.9496C13.5778 11.9344 13.3799 12.0665 13.1304 12.2148C13.1906 11.7967 13.6628 8.53814 13.7059 8.33797C13.7514 8.12456 13.7929 7.76849 13.9812 7.5889C14.2019 7.37808 14.5435 7.25745 16.2432 7.25197C17.9782 7.24639 18.3144 8.49077 18.2223 9.29932C18.1438 9.99139 17.8856 11.7013 17.8128 12.179C17.8017 12.2516 17.7394 12.3051 17.666 12.3051H16.3257C16.2275 12.3051 16.1521 12.2188 16.1658 12.122C16.2336 11.6443 16.4153 10.3707 16.477 10.0009C16.5535 9.54345 16.6147 9.04008 16.4922 8.84135C16.3697 8.64304 16.0023 8.49077 15.2982 8.61283L14.7774 12.2825C14.7774 12.2825 14.4423 11.9655 14.0007 11.9496Z" fill="#FEFEFE"/>
<path id="Fill-10" fill-rule="evenodd" clip-rule="evenodd" d="M19.6759 5.4502H21.1626C21.2179 5.4502 21.2605 5.49892 21.2529 5.55354L20.3278 12.2322C20.3209 12.2817 20.2784 12.3186 20.2281 12.3186H18.7603C18.6993 12.3186 18.6524 12.265 18.6608 12.2047L19.5856 5.52871C19.5918 5.48371 19.6303 5.4502 19.6759 5.4502Z" fill="#FEFEFE"/>
<path id="Fill-12" fill-rule="evenodd" clip-rule="evenodd" d="M20.8263 9.47422L22.5065 7.51336C22.5594 7.4516 22.6369 7.41602 22.7185 7.41602H24.1935C24.3 7.41602 24.356 7.5417 24.2848 7.62043L22.5668 9.52046L24.1373 12.8865C24.1949 13.01 24.1044 13.1513 23.9678 13.1513H22.6346C22.5649 13.1513 22.5017 13.1108 22.4727 13.0478L20.8263 9.47422Z" fill="#FEFEFE"/>
<path id="Fill-14" fill-rule="evenodd" clip-rule="evenodd" d="M13.1402 6.12088C13.02 6.62623 12.5633 7.00226 12.0852 7.00226C11.6072 7.00226 11.2405 6.5926 11.3608 6.08736C11.481 5.58202 11.8768 5.17236 12.4441 5.17236C12.9222 5.17236 13.2604 5.61554 13.1402 6.12088Z" fill="#FEFEFE"/>
<path id="Fill-16" fill-rule="evenodd" clip-rule="evenodd" d="M14.6513 13.4876C14.5311 13.9929 14.0744 14.369 13.5963 14.369C13.1183 14.369 12.7516 13.9593 12.8719 13.4541C12.9921 12.9487 13.388 12.5391 13.9553 12.5391C14.4333 12.5391 14.7715 12.9822 14.6513 13.4876Z" fill="#FEFEFE"/>
<path id="Fill-18" fill-rule="evenodd" clip-rule="evenodd" d="M21.8429 19.5264C21.7416 20.0257 21.2802 20.3972 20.7775 20.3969C20.2748 20.3967 19.869 19.9916 19.9703 19.4923C20.0716 18.993 20.4675 18.5883 21.0639 18.5886C21.5666 18.5889 21.9442 19.027 21.8429 19.5264Z" fill="#FEFEFE"/>
<path id="Fill-20" fill-rule="evenodd" clip-rule="evenodd" d="M9.18808 17.0392H8.28797C8.25455 17.0392 8.23161 17.0057 8.24386 16.9746L9.02718 14.9932C9.04213 14.9554 9.09797 14.9635 9.10161 15.0038L9.27766 16.9414C9.28244 16.9939 9.24102 17.0392 9.18808 17.0392ZM11.3686 19.5274L10.3642 13.5361C10.3203 13.2742 10.0927 13.0823 9.82628 13.0823H8.81842C8.51105 13.0823 8.23202 13.2611 8.10475 13.5399L5.39905 19.5349C5.35981 19.6219 5.42396 19.72 5.51956 19.7195L6.92541 19.7113C7.02164 19.7108 7.10821 19.6533 7.14579 19.5652L7.61313 18.4696C7.62579 18.4397 7.65517 18.4203 7.68777 18.4203H9.38915C9.43088 18.4203 9.46586 18.4519 9.46991 18.4932L9.57143 19.53C9.58316 19.6506 9.685 19.7427 9.80666 19.7427H11.1856C11.3003 19.7427 11.3875 19.6401 11.3686 19.5274Z" fill="#FEFEFE"/>
<path id="Fill-22" fill-rule="evenodd" clip-rule="evenodd" d="M10.6979 20.6129L11.0226 21.6125C11.0809 21.777 11.125 21.8135 11.239 21.7895C11.6492 21.7033 12.6402 21.4115 13.1251 20.7578C13.7572 19.9056 13.8438 18.399 13.9554 17.6332C14.0473 17.0025 14.2485 15.45 14.3166 14.9223C14.3288 14.8273 14.2546 14.7434 14.1585 14.7434H12.8982C12.7868 14.7434 12.6926 14.8253 12.6777 14.9353C12.5761 15.6806 12.21 18.3609 12.1461 18.7324C12.0718 19.1647 12.0569 19.7873 11.4152 20.159C11.095 20.3444 10.9307 20.3798 10.804 20.4388C10.7395 20.4688 10.6667 20.5009 10.6979 20.6129Z" fill="#FEFEFE"/>
<path id="Fill-24" fill-rule="evenodd" clip-rule="evenodd" d="M17.6338 18.3048C17.6338 18.3048 16.9766 18.5275 16.6611 18.2917C16.3455 18.0559 16.3193 17.5713 16.5033 16.877C16.6874 16.1827 17.1474 16.0649 17.3446 16.0517C17.5418 16.0386 17.9125 16.1316 17.9125 16.1316L17.6338 18.3048ZM19.4536 14.9226C19.0286 14.8166 18.3141 14.5839 17.1655 14.6678C16.1057 14.7452 14.9091 15.2336 14.6849 17.3184C14.4608 19.4032 15.4172 19.8053 16.7919 19.8649C17.7993 19.9086 18.59 19.6324 18.9407 19.4816C19.0628 19.4292 19.1478 19.3167 19.1656 19.1855L19.6736 15.1716C19.6935 15.0123 19.6136 14.9624 19.4536 14.9226Z" fill="#FEFEFE"/>
<path id="Fill-26" fill-rule="evenodd" clip-rule="evenodd" d="M20.4339 17.924L20.8037 14.0803C20.817 13.9426 20.933 13.8865 21.0718 13.8865H22.3476C22.4665 13.8865 22.5168 13.9764 22.484 14.1236L21.7053 17.9724C21.6895 18.0469 21.6237 18.1001 21.5473 18.1001H20.5945C20.4993 18.1001 20.4247 18.0184 20.4339 17.924Z" fill="#FEFEFE"/>
<path id="Fill-28" fill-rule="evenodd" clip-rule="evenodd" d="M5.50329 25.0115C5.75595 25.1506 6.05107 25.1911 6.33197 25.1248C7.4509 24.8606 9.92709 24.1494 15.1651 23.3948C21.7457 22.4468 26.6045 22.4507 26.6045 22.4507L26.6173 22.443C26.6173 22.443 22.3108 21.8533 15.2429 22.5412C8.17495 23.2292 4.2301 24.3103 4.2301 24.3103L5.50329 25.0115Z" fill="#FEFEFE"/>
</g>
</g>
</g>
</g>
</g>
<defs>
<clipPath id="clip0_48_2354">
<rect width="30" height="30" fill="white"/>
</clipPath>
</defs>
</svg>
