<svg width="19" height="29" viewBox="0 0 19 29" fill="none" xmlns="http://www.w3.org/2000/svg">
<g id="Frame 1">
<path id="Vector" d="M13.3379 9.0069C13.3379 10.0568 12.9208 11.0637 12.1784 11.8061C11.4361 12.5485 10.4292 12.9655 9.37928 12.9655C8.32938 12.9655 7.32249 12.5485 6.58011 11.8061C5.83772 11.0637 5.42065 10.0568 5.42065 9.0069C5.42065 7.95701 5.83772 6.95012 6.58011 6.20773C7.32249 5.46535 8.32938 5.04828 9.37928 5.04828C10.4292 5.04828 11.4361 5.46535 12.1784 6.20773C12.9208 6.95012 13.3379 7.95701 13.3379 9.0069Z" stroke="white" stroke-width="1.13103" stroke-linecap="round" stroke-linejoin="round"/>
<path id="Vector_2" d="M11.2172 9.0069C11.2172 9.49435 11.0236 9.96184 10.6789 10.3065C10.3342 10.6512 9.86675 10.8448 9.3793 10.8448C8.89185 10.8448 8.42437 10.6512 8.07969 10.3065C7.73501 9.96184 7.54137 9.49435 7.54137 9.0069C7.54137 8.51945 7.73501 8.05197 8.07969 7.70729C8.42437 7.36261 8.89185 7.16897 9.3793 7.16897C9.86675 7.16897 10.3342 7.36261 10.6789 7.70729C11.0236 8.05197 11.2172 8.51945 11.2172 9.0069Z" fill="white" stroke="white" stroke-width="1.41379" stroke-linecap="round" stroke-linejoin="round"/>
<path id="Vector_3" d="M7.93745 15.6316H3.18709C2.7167 15.6316 2.26556 15.4468 1.93294 15.118C1.60032 14.7892 1.41345 14.3431 1.41345 13.8781V5.9874C1.41345 5.52234 1.60032 5.07634 1.93294 4.7475C2.26556 4.41865 2.7167 4.23391 3.18709 4.23391H4.01184C4.30377 4.23395 4.59119 4.16276 4.84861 4.02664C5.10603 3.89052 5.32549 3.69369 5.48751 3.45361L6.20761 2.38398C6.36963 2.1439 6.58908 1.94707 6.8465 1.81095C7.10392 1.67483 7.39135 1.60364 7.68328 1.60368H11.1064C11.3983 1.60364 11.6858 1.67483 11.9432 1.81095C12.2006 1.94707 12.4201 2.1439 12.5821 2.38398L13.3022 3.45361C13.4642 3.69369 13.6837 3.89052 13.9411 4.02664C14.1985 4.16276 14.4859 4.23395 14.7778 4.23391H15.6026C16.073 4.23391 16.5241 4.41865 16.8567 4.7475C17.1894 5.07634 17.3762 5.52234 17.3762 5.9874V13.8781C17.3762 14.3431 17.1894 14.7892 16.8567 15.118C16.5241 15.4468 16.073 15.6316 15.6026 15.6316H10.5689" stroke="white" stroke-width="1.41379" stroke-linecap="round" stroke-linejoin="round"/>
<circle id="Ellipse 5" cx="3.83211" cy="6.44092" r="0.483721" fill="white"/>
<circle id="Ellipse 6" cx="14.9577" cy="6.44092" r="0.483721" fill="white"/>
<path id="Ellipse 7" d="M8.94084 7.63728C9.02447 7.89101 8.50288 8.54561 8.24915 8.62924C7.99543 8.71287 7.72195 8.57497 7.63832 8.32125C7.5547 8.06752 8.07629 7.41292 8.33001 7.32929C8.58374 7.24567 8.85722 7.38356 8.94084 7.63728Z" fill="#FF4000"/>
<path id="Vector 4" d="M16.1556 15.5983L9.35442 26.8526" stroke="white" stroke-width="1.41379" stroke-linecap="round"/>
<path id="Vector 5" d="M2.3913 15.5983L9.19245 26.8526" stroke="white" stroke-width="1.41379" stroke-linecap="round"/>
</g>
</svg>
