<svg width="64" height="20" viewBox="0 0 64 20" fill="none" xmlns="http://www.w3.org/2000/svg">
<g id="Logo_ovo_purple 1" clip-path="url(#clip0_48_2352)">
<path id="Vector" fill-rule="evenodd" clip-rule="evenodd" d="M17.6124 16.8667C15.6417 18.7449 13.017 19.7766 10.2982 19.7417C7.56586 19.7831 4.92581 18.7512 2.94232 16.8667C2.00906 15.9594 1.26706 14.8733 0.760358 13.673C0.253651 12.4727 -0.00744629 11.1826 -0.00744629 9.87921C-0.00744629 8.57582 0.253651 7.28571 0.760358 6.08541C1.26706 4.88511 2.00906 3.79906 2.94232 2.89171C4.92329 0.996024 7.56834 -0.0426012 10.3065 4.23666e-05C13.0253 -0.034834 15.65 0.996869 17.6208 2.87504C18.5551 3.7818 19.298 4.86765 19.8053 6.06803C20.3127 7.26842 20.5742 8.55882 20.5742 9.86254C20.5742 11.1663 20.3127 12.4567 19.8053 13.6571C19.298 14.8574 18.5551 15.9433 17.6208 16.85M10.3065 3.21671C9.43864 3.2083 8.57809 3.37625 7.77678 3.71044C6.97546 4.04463 6.24998 4.53813 5.64411 5.16115C5.03824 5.78417 4.56455 6.5238 4.25162 7.3354C3.93869 8.14701 3.793 9.01377 3.82336 9.88338C3.82336 10.7348 3.99062 11.5778 4.31559 12.3644C4.64056 13.151 5.11688 13.8658 5.71735 14.4678C6.31782 15.0698 7.03068 15.5474 7.81523 15.8732C8.59978 16.199 9.44066 16.3667 10.2899 16.3667C11.139 16.3667 11.9799 16.199 12.7645 15.8732C13.549 15.5474 14.2619 15.0698 14.8624 14.4678C15.4628 13.8658 15.9391 13.151 16.2641 12.3644C16.5891 11.5778 16.7563 10.7348 16.7563 9.88338C16.7866 9.01659 16.6419 8.15262 16.331 7.34325C16.0201 6.53388 15.5494 5.7958 14.9471 5.17325C14.3448 4.5507 13.6233 4.05651 12.8259 3.7203C12.0285 3.3841 11.1715 3.21281 10.3065 3.21671ZM41.8909 2.32504L33.9865 20L33.5376 19.9167C31.2769 19.5084 30.8197 18.9417 29.7641 16.6417L23.8379 3.70004H21.6104V0.558376H30.0301V3.70004H28.0187L32.7813 14.4084L37.4026 3.70004H34.9091V0.558376H41.8909V2.32504ZM61.0078 16.8667C59.0116 18.7151 56.3941 19.7415 53.6769 19.7415C50.9596 19.7415 48.3421 18.7151 46.346 16.8667C45.4127 15.9594 44.6707 14.8733 44.164 13.673C43.6573 12.4727 43.3962 11.1826 43.3962 9.87921C43.3962 8.57582 43.6573 7.28571 44.164 6.08541C44.6707 4.88511 45.4127 3.79906 46.346 2.89171C48.3421 1.04337 50.9596 0.0169315 53.6769 0.0169315C56.3941 0.0169315 59.0116 1.04337 61.0078 2.89171C61.9442 3.79727 62.6889 4.88273 63.1976 6.08327C63.7063 7.28381 63.9685 8.57482 63.9685 9.87921C63.9685 11.1836 63.7063 12.4746 63.1976 13.6751C62.6889 14.8757 61.9442 15.9612 61.0078 16.8667ZM53.735 3.21671C52.8668 3.20834 52.0059 3.37627 51.2042 3.71036C50.4024 4.04446 49.6764 4.53781 49.0699 5.16071C48.4634 5.7836 47.9889 6.52314 47.675 7.33478C47.3612 8.14642 47.2144 9.01336 47.2436 9.88338C47.2436 10.7348 47.4109 11.5778 47.7358 12.3644C48.0608 13.151 48.5371 13.8658 49.1376 14.4678C49.7381 15.0698 50.4509 15.5474 51.2355 15.8732C52.02 16.199 52.8609 16.3667 53.7101 16.3667C54.5593 16.3667 55.4002 16.199 56.1847 15.8732C56.9693 15.5474 57.6821 15.0698 58.2826 14.4678C58.8831 13.8658 59.3594 13.151 59.6844 12.3644C60.0093 11.5778 60.1766 10.7348 60.1766 9.88338C60.208 9.017 60.0644 8.15321 59.7544 7.34387C59.4444 6.53454 58.9745 5.79637 58.3729 5.17369C57.7712 4.55102 57.0503 4.05669 56.2533 3.72039C55.4563 3.38409 54.5997 3.21277 53.735 3.21671Z" fill="#4B2489"/>
</g>
<defs>
<clipPath id="clip0_48_2352">
<rect width="64" height="20" fill="white"/>
</clipPath>
</defs>
</svg>
