<svg width="117" height="166" viewBox="0 0 117 166" fill="none" xmlns="http://www.w3.org/2000/svg">
<g filter="url(#filter0_d_65_1358)">
<rect x="8.5" y="6" width="100" height="150" rx="4" fill="#4FB1BF"/>
<rect width="66.4326" height="49.1573" transform="translate(25.3539 81)"/>
<rect x="49.9326" y="97.0112" width="17.1496" height="17.1496" rx="8.57478" fill="#BCBCBC"/>
<path d="M57.0636 107.755C57.6131 107.28 58.0453 106.891 58.3601 106.587C58.6807 106.278 58.9469 105.958 59.1587 105.626C59.3705 105.294 59.4764 104.962 59.4764 104.629C59.4764 104.286 59.3934 104.017 59.2274 103.822C59.0671 103.628 58.8124 103.53 58.4632 103.53C58.1254 103.53 57.8621 103.639 57.6732 103.857C57.49 104.068 57.3927 104.355 57.3813 104.715H56.4367C56.4539 104.063 56.6485 103.565 57.0206 103.221C57.3984 102.872 57.8764 102.698 58.4546 102.698C59.0786 102.698 59.5651 102.869 59.9143 103.213C60.2692 103.556 60.4467 104.014 60.4467 104.587C60.4467 104.999 60.3408 105.397 60.129 105.78C59.9229 106.158 59.6739 106.499 59.382 106.802C59.0957 107.1 58.7294 107.446 58.2829 107.841L57.8965 108.184H60.6184V109H56.4453V108.287L57.0636 107.755Z" fill="black"/>
<rect width="66.4326" height="49.1573" transform="translate(25.3539 19.9043)"/>
<rect x="49.9326" y="35.9155" width="17.1496" height="17.1496" rx="8.57478" fill="#BCBCBC"/>
<path d="M56.8938 42.6236V41.7306H58.6798V47.9902H57.6924V42.6236H56.8938Z" fill="black"/>
<path d="M47.4081 142.04C47.3084 142.04 47.2151 142.029 47.1283 142.007C47.0414 141.986 46.9632 141.954 46.8937 141.91C46.8242 141.865 46.7666 141.808 46.7209 141.74C46.6752 141.671 46.6436 141.589 46.6263 141.494L46.8512 141.397C46.8823 141.499 46.9221 141.582 46.9705 141.645C47.0199 141.708 47.0821 141.754 47.1571 141.782C47.233 141.811 47.3249 141.825 47.4327 141.825C47.5205 141.825 47.5978 141.813 47.6645 141.789C47.7322 141.764 47.7852 141.727 47.8236 141.675C47.8621 141.624 47.8808 141.557 47.8799 141.475C47.8799 141.389 47.863 141.322 47.8291 141.273C47.7962 141.225 47.7409 141.183 47.6632 141.149C47.5855 141.114 47.4785 141.075 47.3422 141.032C47.2224 140.993 47.1155 140.952 47.0213 140.911C46.9271 140.87 46.853 140.815 46.7991 140.747C46.7451 140.677 46.7182 140.583 46.7182 140.463C46.7182 140.35 46.7465 140.257 46.8032 140.183C46.8608 140.109 46.9413 140.054 47.0446 140.017C47.1488 139.98 47.2714 139.961 47.4122 139.961C47.5228 139.961 47.6188 139.972 47.7002 139.995C47.7825 140.017 47.8561 140.053 47.921 140.103C47.986 140.154 48.0463 140.221 48.1021 140.305L47.9142 140.448C47.8575 140.352 47.7907 140.282 47.7139 140.239C47.6371 140.195 47.5475 140.173 47.4451 140.173C47.3527 140.173 47.2732 140.183 47.2064 140.202C47.1397 140.221 47.0876 140.251 47.0501 140.291C47.0135 140.332 46.9952 140.383 46.9952 140.445C46.9952 140.508 47.0076 140.559 47.0322 140.597C47.0579 140.635 47.0949 140.666 47.1433 140.692C47.1918 140.717 47.2503 140.739 47.3189 140.76C47.3884 140.781 47.467 140.807 47.5548 140.836C47.6819 140.877 47.7903 140.923 47.8799 140.973C47.9695 141.022 48.0381 141.086 48.0856 141.164C48.1332 141.241 48.1569 141.342 48.1569 141.467C48.1569 141.591 48.1277 141.696 48.0692 141.781C48.0106 141.866 47.9256 141.93 47.814 141.974C47.7025 142.018 47.5672 142.04 47.4081 142.04ZM48.4175 142.006V140.603H48.6754V140.802C48.7229 140.727 48.7842 140.669 48.8592 140.63C48.9351 140.591 49.0256 140.571 49.1308 140.571C49.2414 140.571 49.3292 140.59 49.3941 140.629C49.459 140.666 49.5075 140.716 49.5395 140.778C49.5724 140.84 49.5939 140.907 49.604 140.98C49.614 141.053 49.619 141.125 49.619 141.195V142.006H49.3626V141.183C49.3626 141.043 49.3429 140.936 49.3036 140.863C49.2652 140.79 49.192 140.754 49.0841 140.754C49.0073 140.754 48.9429 140.769 48.8907 140.799C48.8386 140.829 48.797 140.87 48.7659 140.922C48.7348 140.974 48.712 141.032 48.6973 141.097C48.6836 141.161 48.6763 141.227 48.6754 141.297V142.006H48.4175ZM50.3199 142.04C50.2404 142.04 50.1681 142.027 50.1032 142C50.0392 141.974 49.9885 141.934 49.951 141.881C49.9135 141.827 49.8947 141.759 49.8947 141.678C49.8947 141.59 49.9112 141.519 49.9441 141.465C49.977 141.411 50.0241 141.368 50.0854 141.337C50.1476 141.305 50.2212 141.281 50.3062 141.262C50.3922 141.244 50.4868 141.227 50.5901 141.212L50.7492 141.187V141.123C50.7492 141.032 50.7419 140.96 50.7273 140.907C50.7126 140.853 50.6852 140.814 50.645 140.791C50.6047 140.767 50.5453 140.755 50.4667 140.755C50.3762 140.755 50.2975 140.768 50.2308 140.793C50.164 140.818 50.0991 140.853 50.036 140.898C50.036 140.898 50.0305 140.89 50.0195 140.874C50.0095 140.859 49.9976 140.841 49.9839 140.821C49.9711 140.801 49.9597 140.783 49.9496 140.767C49.9395 140.752 49.9345 140.744 49.9345 140.744C50.0113 140.687 50.0918 140.644 50.1759 140.615C50.26 140.586 50.3606 140.571 50.4776 140.571C50.645 140.571 50.7748 140.612 50.8672 140.693C50.9595 140.775 51.0057 140.902 51.0057 141.076V142.006H50.7849L50.7629 141.834C50.7154 141.902 50.6537 141.953 50.5778 141.988C50.5028 142.023 50.4168 142.04 50.3199 142.04ZM50.3569 141.858C50.4402 141.858 50.5133 141.84 50.5764 141.806C50.6395 141.771 50.6971 141.723 50.7492 141.662V141.349L50.5695 141.382C50.4507 141.402 50.3597 141.422 50.2966 141.444C50.2335 141.465 50.1901 141.492 50.1663 141.524C50.1434 141.556 50.1325 141.599 50.1334 141.653C50.1343 141.72 50.1508 141.771 50.1828 141.806C50.2148 141.84 50.2728 141.858 50.3569 141.858ZM51.3308 142.504V140.603H51.5557L51.5763 140.811C51.6193 140.739 51.6759 140.681 51.7464 140.637C51.8168 140.593 51.9 140.571 51.996 140.571C52.1734 140.571 52.3165 140.633 52.4253 140.756C52.535 140.879 52.5899 141.06 52.5899 141.299C52.5899 141.454 52.5666 141.587 52.5199 141.697C52.4742 141.808 52.407 141.892 52.3183 141.951C52.2305 142.01 52.1235 142.039 51.9974 142.039C51.905 142.039 51.8245 142.022 51.756 141.989C51.6883 141.956 51.6325 141.909 51.5886 141.849V142.504H51.3308ZM51.9809 141.856C52.0998 141.856 52.1871 141.81 52.2429 141.716C52.2986 141.623 52.3265 141.483 52.3265 141.297C52.3265 141.122 52.2977 140.988 52.2401 140.895C52.1834 140.801 52.097 140.754 51.9809 140.754C51.9306 140.754 51.8817 140.762 51.8341 140.778C51.7875 140.795 51.7459 140.823 51.7093 140.863C51.6727 140.903 51.6435 140.957 51.6215 141.025C51.5996 141.093 51.5886 141.178 51.5886 141.28C51.5886 141.41 51.5996 141.518 51.6215 141.603C51.6435 141.688 51.6828 141.751 51.7395 141.793C51.7962 141.835 51.8767 141.856 51.9809 141.856ZM53.3442 142.039C53.2656 142.039 53.1897 142.028 53.1166 142.007C53.0434 141.987 52.9794 141.952 52.9245 141.903C52.8706 141.853 52.8317 141.784 52.808 141.697L52.9959 141.619C53.0196 141.679 53.0452 141.726 53.0727 141.76C53.101 141.794 53.138 141.819 53.1838 141.834C53.2295 141.849 53.2894 141.856 53.3634 141.856C53.4558 141.856 53.5299 141.84 53.5856 141.808C53.6423 141.776 53.6707 141.72 53.6707 141.64C53.6707 141.597 53.6661 141.562 53.657 141.537C53.6478 141.51 53.63 141.489 53.6035 141.472C53.5779 141.455 53.539 141.439 53.4869 141.424C53.4348 141.41 53.3657 141.393 53.2798 141.374C53.181 141.351 53.0996 141.326 53.0356 141.298C52.9725 141.27 52.9259 141.23 52.8957 141.179C52.8656 141.127 52.8505 141.054 52.8505 140.962C52.8505 140.836 52.8989 140.739 52.9959 140.673C53.0928 140.605 53.2199 140.571 53.3772 140.571C53.5006 140.571 53.6021 140.591 53.6817 140.632C53.7621 140.672 53.827 140.743 53.8764 140.846C53.8764 140.846 53.8682 140.85 53.8517 140.859C53.8362 140.868 53.8174 140.879 53.7955 140.891C53.7745 140.902 53.7557 140.912 53.7393 140.922C53.7237 140.931 53.7159 140.936 53.7159 140.936C53.6812 140.867 53.6396 140.82 53.5911 140.793C53.5427 140.767 53.4745 140.754 53.3868 140.754C53.2734 140.754 53.1957 140.771 53.1536 140.804C53.1124 140.838 53.0914 140.892 53.0905 140.965C53.0896 141.013 53.0983 141.05 53.1166 141.076C53.1348 141.102 53.1669 141.122 53.2126 141.138C53.2583 141.153 53.3218 141.17 53.4032 141.187C53.5221 141.213 53.6172 141.241 53.6885 141.273C53.7598 141.305 53.8115 141.348 53.8435 141.401C53.8764 141.454 53.8929 141.525 53.8929 141.615C53.8929 141.752 53.8504 141.857 53.7653 141.93C53.6803 142.003 53.5399 142.039 53.3442 142.039ZM54.159 142.504V140.603H54.3839L54.4045 140.811C54.4474 140.739 54.5041 140.681 54.5745 140.637C54.645 140.593 54.7282 140.571 54.8242 140.571C55.0016 140.571 55.1447 140.633 55.2535 140.756C55.3632 140.879 55.4181 141.06 55.4181 141.299C55.4181 141.454 55.3948 141.587 55.3481 141.697C55.3024 141.808 55.2352 141.892 55.1465 141.951C55.0587 142.01 54.9517 142.039 54.8255 142.039C54.7332 142.039 54.6527 142.022 54.5841 141.989C54.5165 141.956 54.4607 141.909 54.4168 141.849V142.504H54.159ZM54.8091 141.856C54.928 141.856 55.0153 141.81 55.0711 141.716C55.1268 141.623 55.1547 141.483 55.1547 141.297C55.1547 141.122 55.1259 140.988 55.0683 140.895C55.0116 140.801 54.9252 140.754 54.8091 140.754C54.7588 140.754 54.7099 140.762 54.6623 140.778C54.6157 140.795 54.5741 140.823 54.5375 140.863C54.5009 140.903 54.4717 140.957 54.4497 141.025C54.4278 141.093 54.4168 141.178 54.4168 141.28C54.4168 141.41 54.4278 141.518 54.4497 141.603C54.4717 141.688 54.511 141.751 54.5677 141.793C54.6244 141.835 54.7048 141.856 54.8091 141.856ZM56.2972 142.039C56.1061 142.039 55.9539 141.977 55.8405 141.854C55.728 141.729 55.6718 141.546 55.6718 141.305C55.6718 141.064 55.728 140.881 55.8405 140.758C55.9539 140.633 56.1061 140.571 56.2972 140.571C56.4884 140.571 56.6401 140.633 56.7526 140.758C56.8651 140.881 56.9213 141.064 56.9213 141.305C56.9213 141.546 56.8651 141.729 56.7526 141.854C56.6401 141.977 56.4884 142.039 56.2972 142.039ZM56.2972 141.856C56.396 141.856 56.4714 141.829 56.5236 141.775C56.5757 141.721 56.6113 141.651 56.6305 141.567C56.6497 141.482 56.6593 141.395 56.6593 141.305C56.6593 141.214 56.6497 141.127 56.6305 141.043C56.6113 140.959 56.5757 140.89 56.5236 140.836C56.4714 140.781 56.396 140.754 56.2972 140.754C56.1985 140.754 56.1231 140.781 56.0709 140.836C56.0188 140.89 55.9832 140.959 55.964 141.043C55.9448 141.127 55.9352 141.214 55.9352 141.305C55.9352 141.395 55.9448 141.482 55.964 141.567C55.9832 141.651 56.0188 141.721 56.0709 141.775C56.1231 141.829 56.1985 141.856 56.2972 141.856ZM57.699 142.028C57.6231 142.028 57.5554 142.014 57.496 141.985C57.4366 141.957 57.3895 141.911 57.3547 141.847C57.3209 141.782 57.304 141.695 57.304 141.585V140.778H57.1037V140.603H57.3054L57.315 140.162L57.5618 140.097V140.603H57.8691V140.778H57.5618V141.6C57.5618 141.689 57.5774 141.75 57.6085 141.785C57.6405 141.819 57.6835 141.836 57.7374 141.837C57.7639 141.837 57.7927 141.833 57.8238 141.826C57.8549 141.818 57.886 141.807 57.9171 141.795L57.9596 141.963C57.9221 141.983 57.8805 141.998 57.8348 142.01C57.7891 142.022 57.7438 142.028 57.699 142.028ZM58.799 142.006V139.998H59.1844L59.7536 141.379L60.3475 139.998H60.6973V142.006H60.4531V140.339L59.8661 141.663H59.6219L59.0514 140.327V142.006H58.799ZM61.6491 142.039C61.5028 142.039 61.3831 142.005 61.2898 141.939C61.1974 141.871 61.1293 141.781 61.0854 141.67C61.0415 141.558 61.0196 141.436 61.0196 141.304C61.0196 141.155 61.0434 141.027 61.0909 140.917C61.1394 140.807 61.2098 140.722 61.3021 140.662C61.3945 140.601 61.506 140.571 61.6368 140.571C61.7676 140.571 61.8745 140.6 61.9577 140.659C62.041 140.717 62.1027 140.795 62.1429 140.894C62.1841 140.992 62.2046 141.104 62.2046 141.23C62.2046 141.233 62.2042 141.243 62.2033 141.26C62.2033 141.276 62.2028 141.293 62.2019 141.31C62.2019 141.328 62.2014 141.341 62.2005 141.349H61.2774C61.2784 141.435 61.2907 141.516 61.3145 141.593C61.3392 141.67 61.378 141.733 61.4311 141.782C61.485 141.831 61.5563 141.855 61.645 141.855C61.7401 141.855 61.8142 141.83 61.8672 141.781C61.9212 141.731 61.96 141.671 61.9838 141.603L62.1758 141.645C62.1548 141.727 62.1187 141.797 62.0675 141.856C62.0172 141.915 61.9559 141.96 61.8837 141.991C61.8114 142.022 61.7333 142.038 61.6491 142.039ZM61.2774 141.18H61.9632C61.9632 141.044 61.9376 140.939 61.8864 140.866C61.8361 140.792 61.7511 140.755 61.6313 140.755C61.5691 140.755 61.5161 140.768 61.4722 140.793C61.4283 140.819 61.3922 140.853 61.3639 140.895C61.3364 140.937 61.3158 140.983 61.3021 141.033C61.2884 141.083 61.2802 141.132 61.2774 141.18ZM62.4762 142.006V140.603H62.7341V140.804C62.7816 140.729 62.8429 140.672 62.9178 140.632C62.9928 140.591 63.0834 140.571 63.1894 140.571C63.2809 140.571 63.3563 140.584 63.4157 140.611C63.4752 140.637 63.5227 140.672 63.5584 140.717C63.594 140.76 63.6206 140.81 63.6379 140.865C63.6836 140.769 63.7472 140.696 63.8286 140.647C63.9109 140.596 64.0128 140.571 64.1344 140.571C64.2451 140.571 64.3329 140.59 64.3978 140.629C64.4636 140.666 64.5125 140.716 64.5445 140.778C64.5775 140.84 64.5985 140.907 64.6076 140.98C64.6177 141.053 64.6227 141.125 64.6227 141.195V142.006H64.3662V141.179C64.3662 141.086 64.3575 141.009 64.3402 140.946C64.3237 140.883 64.2949 140.835 64.2538 140.803C64.2135 140.77 64.1568 140.754 64.0837 140.754C63.9767 140.754 63.8935 140.781 63.8341 140.835C63.7755 140.888 63.7348 140.958 63.712 141.044C63.6891 141.131 63.6777 141.225 63.6777 141.326V142.006H63.4212V141.179C63.4212 141.086 63.4125 141.009 63.3952 140.946C63.3787 140.883 63.3499 140.835 63.3087 140.803C63.2676 140.77 63.2109 140.754 63.1387 140.754C63.0353 140.754 62.9544 140.78 62.8959 140.833C62.8374 140.885 62.7958 140.954 62.7711 141.039C62.7473 141.124 62.735 141.215 62.7341 141.312V142.006H62.4762ZM65.5362 142.039C65.3451 142.039 65.1928 141.977 65.0795 141.854C64.967 141.729 64.9107 141.546 64.9107 141.305C64.9107 141.064 64.967 140.881 65.0795 140.758C65.1928 140.633 65.3451 140.571 65.5362 140.571C65.7273 140.571 65.8791 140.633 65.9916 140.758C66.104 140.881 66.1603 141.064 66.1603 141.305C66.1603 141.546 66.104 141.729 65.9916 141.854C65.8791 141.977 65.7273 142.039 65.5362 142.039ZM65.5362 141.856C65.6349 141.856 65.7104 141.829 65.7625 141.775C65.8146 141.721 65.8503 141.651 65.8695 141.567C65.8887 141.482 65.8983 141.395 65.8983 141.305C65.8983 141.214 65.8887 141.127 65.8695 141.043C65.8503 140.959 65.8146 140.89 65.7625 140.836C65.7104 140.781 65.6349 140.754 65.5362 140.754C65.4374 140.754 65.362 140.781 65.3099 140.836C65.2578 140.89 65.2221 140.959 65.2029 141.043C65.1837 141.127 65.1741 141.214 65.1741 141.305C65.1741 141.395 65.1837 141.482 65.2029 141.567C65.2221 141.651 65.2578 141.721 65.3099 141.775C65.362 141.829 65.4374 141.856 65.5362 141.856ZM66.4579 142.006V140.603H66.7144V140.836C66.7628 140.75 66.8218 140.687 66.8913 140.648C66.9617 140.609 67.0422 140.589 67.1327 140.589V140.817C67.033 140.817 66.9526 140.839 66.8913 140.884C66.83 140.928 66.7857 140.986 66.7583 141.058C66.7308 141.13 66.7162 141.208 66.7144 141.291L66.7157 142.006H66.4579ZM67.3851 142.006V140.603H67.6429V142.006H67.3851ZM67.3659 140.315V139.998H67.6292V140.315H67.3659ZM68.5564 142.039C68.4101 142.039 68.2903 142.005 68.197 141.939C68.1047 141.871 68.0366 141.781 67.9927 141.67C67.9488 141.558 67.9268 141.436 67.9268 141.304C67.9268 141.155 67.9506 141.027 67.9982 140.917C68.0466 140.807 68.117 140.722 68.2094 140.662C68.3017 140.601 68.4133 140.571 68.5441 140.571C68.6748 140.571 68.7818 140.6 68.865 140.659C68.9482 140.717 69.0099 140.795 69.0502 140.894C69.0913 140.992 69.1119 141.104 69.1119 141.23C69.1119 141.233 69.1114 141.243 69.1105 141.26C69.1105 141.276 69.1101 141.293 69.1091 141.31C69.1091 141.328 69.1087 141.341 69.1078 141.349H68.1847C68.1856 141.435 68.198 141.516 68.2217 141.593C68.2464 141.67 68.2853 141.733 68.3383 141.782C68.3923 141.831 68.4636 141.855 68.5523 141.855C68.6474 141.855 68.7214 141.83 68.7745 141.781C68.8284 141.731 68.8673 141.671 68.8911 141.603L69.0831 141.645C69.0621 141.727 69.0259 141.797 68.9747 141.856C68.9244 141.915 68.8632 141.96 68.7909 141.991C68.7187 142.022 68.6405 142.038 68.5564 142.039ZM68.1847 141.18H68.8705C68.8705 141.044 68.8449 140.939 68.7937 140.866C68.7434 140.792 68.6584 140.755 68.5386 140.755C68.4764 140.755 68.4234 140.768 68.3795 140.793C68.3356 140.819 68.2995 140.853 68.2711 140.895C68.2437 140.937 68.2231 140.983 68.2094 141.033C68.1957 141.083 68.1874 141.132 68.1847 141.18ZM69.8388 142.039C69.7602 142.039 69.6843 142.028 69.6111 142.007C69.538 141.987 69.474 141.952 69.4191 141.903C69.3652 141.853 69.3263 141.784 69.3025 141.697L69.4904 141.619C69.5142 141.679 69.5398 141.726 69.5672 141.76C69.5956 141.794 69.6326 141.819 69.6783 141.834C69.7241 141.849 69.784 141.856 69.858 141.856C69.9504 141.856 70.0244 141.84 70.0802 141.808C70.1369 141.776 70.1653 141.72 70.1653 141.64C70.1653 141.597 70.1607 141.562 70.1515 141.537C70.1424 141.51 70.1246 141.489 70.098 141.472C70.0724 141.455 70.0336 141.439 69.9815 141.424C69.9293 141.41 69.8603 141.393 69.7744 141.374C69.6756 141.351 69.5942 141.326 69.5302 141.298C69.4671 141.27 69.4205 141.23 69.3903 141.179C69.3601 141.127 69.3451 141.054 69.3451 140.962C69.3451 140.836 69.3935 140.739 69.4904 140.673C69.5874 140.605 69.7145 140.571 69.8717 140.571C69.9952 140.571 70.0967 140.591 70.1762 140.632C70.2567 140.672 70.3216 140.743 70.371 140.846C70.371 140.846 70.3628 140.85 70.3463 140.859C70.3308 140.868 70.312 140.879 70.2901 140.891C70.269 140.902 70.2503 140.912 70.2338 140.922C70.2183 140.931 70.2105 140.936 70.2105 140.936C70.1758 140.867 70.1342 140.82 70.0857 140.793C70.0372 140.767 69.9691 140.754 69.8813 140.754C69.768 140.754 69.6902 140.771 69.6482 140.804C69.607 140.838 69.586 140.892 69.5851 140.965C69.5842 141.013 69.5929 141.05 69.6111 141.076C69.6294 141.102 69.6614 141.122 69.7072 141.138C69.7529 141.153 69.8164 141.17 69.8978 141.187C70.0167 141.213 70.1118 141.241 70.1831 141.273C70.2544 141.305 70.3061 141.348 70.3381 141.401C70.371 141.454 70.3875 141.525 70.3875 141.615C70.3875 141.752 70.3449 141.857 70.2599 141.93C70.1749 142.003 70.0345 142.039 69.8388 142.039Z" fill="white"/>
</g>
<defs>
<filter id="filter0_d_65_1358" x="0.5" y="0" width="116" height="166" filterUnits="userSpaceOnUse" color-interpolation-filters="sRGB">
<feFlood flood-opacity="0" result="BackgroundImageFix"/>
<feColorMatrix in="SourceAlpha" type="matrix" values="0 0 0 0 0 0 0 0 0 0 0 0 0 0 0 0 0 0 127 0" result="hardAlpha"/>
<feOffset dy="2"/>
<feGaussianBlur stdDeviation="4"/>
<feComposite in2="hardAlpha" operator="out"/>
<feColorMatrix type="matrix" values="0 0 0 0 0 0 0 0 0 0 0 0 0 0 0 0 0 0 0.16 0"/>
<feBlend mode="normal" in2="BackgroundImageFix" result="effect1_dropShadow_65_1358"/>
<feBlend mode="normal" in="SourceGraphic" in2="effect1_dropShadow_65_1358" result="shape"/>
</filter>
</defs>
</svg>
