<svg width="54" height="55" viewBox="0 0 54 55" fill="none" xmlns="http://www.w3.org/2000/svg">
<path fill-rule="evenodd" clip-rule="evenodd" d="M26.163 51.4432L26.1711 51.4459C26.703 51.6781 27 51.6241 27 51.6241C27 51.6241 27.297 51.6781 27.8316 51.4459L27.837 51.4432L27.8532 51.4351L27.9018 51.4135C28.1579 51.2942 28.4109 51.1681 28.6605 51.0355C29.1627 50.7763 29.8647 50.3875 30.7044 49.8664C32.3784 48.8296 34.6059 47.2582 36.8442 45.1009C41.3154 40.7917 45.9 34.0552 45.9 24.6241C45.9 22.1422 45.4111 19.6845 44.4613 17.3914C43.5115 15.0984 42.1193 13.0148 40.3643 11.2598C38.6093 9.50479 36.5257 8.11263 34.2327 7.16281C31.9396 6.213 29.482 5.72414 27 5.72414C24.518 5.72414 22.0603 6.213 19.7673 7.16281C17.4742 8.11263 15.3907 9.50479 13.6357 11.2598C11.8806 13.0148 10.4885 15.0984 9.53865 17.3914C8.58884 19.6845 8.09998 22.1422 8.09998 24.6241C8.09998 34.0525 12.6846 40.7917 17.1585 45.1009C19.0312 46.9005 21.0882 48.4978 23.2956 49.8664C24.1507 50.3967 25.03 50.8868 25.9308 51.3352L26.0982 51.4135L26.1468 51.4351L26.163 51.4432ZM27 30.6991C28.6112 30.6991 30.1564 30.0591 31.2956 28.9198C32.4349 27.7805 33.075 26.2353 33.075 24.6241C33.075 23.0129 32.4349 21.4677 31.2956 20.3285C30.1564 19.1892 28.6112 18.5491 27 18.5491C25.3888 18.5491 23.8436 19.1892 22.7043 20.3285C21.565 21.4677 20.925 23.0129 20.925 24.6241C20.925 26.2353 21.565 27.7805 22.7043 28.9198C23.8436 30.0591 25.3888 30.6991 27 30.6991Z" fill="#FF4000"/>
</svg>
