<svg width="124" height="40" viewBox="0 0 124 40" fill="none" xmlns="http://www.w3.org/2000/svg">
<g id="SeaBank 1" clip-path="url(#clip0_48_2389)">
<path id="Vector" fill-rule="evenodd" clip-rule="evenodd" d="M18.228 0C8.18644 0 0.0457398 8.16988 0.0457398 18.2272C0.0394325 22.0717 1.25119 25.8188 3.50593 28.9269C4.28818 28.5522 5.09725 28.2368 5.92639 27.9832C3.80609 25.3136 2.54591 21.921 2.54591 18.2474C2.54591 9.59556 9.56668 2.54963 18.1876 2.54963C26.8086 2.54963 33.8293 9.59506 33.8293 18.2469C33.8293 23.7877 30.9493 28.6854 26.5886 31.4756C27.0089 31.4756 27.4291 31.4756 27.869 31.4558C29.2891 31.3753 30.6295 30.7328 31.7696 30.2114C34.6496 26.9788 36.4097 22.924 36.4097 18.2267C36.4097 8.17037 28.269 0 18.228 0Z" fill="#EA5F00"/>
<path id="Vector_2" fill-rule="evenodd" clip-rule="evenodd" d="M29.7487 36.3754C28.7286 36.7167 27.7287 36.9172 26.7687 36.9374C22.7082 37.0979 19.7878 35.8737 16.9875 34.6693C14.4868 33.6051 12.1466 32.6016 9.26651 32.7621C6.5459 32.9828 4.64604 34.5088 4.56583 34.5685C4.00586 35.0105 3.92615 35.8332 4.36605 36.3957C4.80596 36.9576 5.64591 37.0579 6.20637 36.6164C6.22605 36.6164 7.58612 35.5325 9.46629 35.3917C11.6668 35.2915 13.6872 36.1142 15.9871 37.1181C18.6074 38.2421 21.5278 39.487 25.4283 39.607C25.9086 39.6273 26.3884 39.607 26.8888 39.5873C28.1091 39.5473 29.3688 39.3058 30.629 38.8846C30.9548 38.7686 31.2228 38.5296 31.376 38.2185C31.5292 37.9074 31.5554 37.5486 31.4492 37.2184C31.1889 36.4959 30.4292 36.1344 29.7487 36.3754Z" fill="#2673DD"/>
<path id="Vector_3" fill-rule="evenodd" clip-rule="evenodd" d="M33.9293 30.4913C32.6893 31.3545 30.1891 32.8197 27.3287 32.9205C23.6884 33.081 21.3078 32.0168 18.7678 30.9328C16.1072 29.7689 13.3472 28.5644 9.20651 28.7452C5.36595 28.8854 2.10603 31.0938 0.505348 32.3782C0.366294 32.4895 0.250675 32.6274 0.165221 32.7839C0.0797666 32.9404 0.0261843 33.1124 0.00759281 33.2898C-0.0109987 33.4673 0.00577184 33.6468 0.0569284 33.8177C0.108085 33.9886 0.192605 34.1476 0.30557 34.2854C0.416408 34.425 0.553797 34.541 0.709742 34.6267C0.865686 34.7125 1.03707 34.7663 1.21392 34.7849C1.39077 34.8036 1.56955 34.7868 1.73985 34.7354C1.91016 34.6841 2.06859 34.5993 2.20592 34.4859C3.54581 33.4019 6.24576 31.5555 9.3064 31.435C12.8468 31.2943 15.187 32.318 17.6675 33.4019C20.1082 34.4661 22.6079 35.5698 26.2088 35.6301C26.6088 35.6301 27.0089 35.6301 27.4291 35.6103C30.969 35.4696 33.9696 33.7234 35.4694 32.6992C36.0894 32.278 36.2297 31.435 35.8094 30.8128C35.3897 30.2103 34.5296 30.0498 33.9297 30.4918L33.9293 30.4913Z" fill="#2673DD"/>
<path id="Vector_4" fill-rule="evenodd" clip-rule="evenodd" d="M19.2476 29.5897L19.2874 29.6095C20.8679 30.252 22.3879 30.8742 24.1682 31.2154C29.1085 28.9473 32.549 23.9488 32.549 18.1473C32.5687 10.2381 26.1286 3.79468 18.2477 3.79468C10.3663 3.79468 3.90553 10.2381 3.90553 18.1473C3.90101 21.6202 5.16015 24.9753 7.44642 27.5823C7.88632 27.5018 8.32623 27.4618 8.78631 27.4218C13.3468 27.1606 16.4871 28.4455 19.2476 29.5897ZM20.2676 19.9142C20.0081 19.6531 19.7028 19.4421 19.3671 19.292C19.0079 19.1107 18.6074 18.9705 18.1877 18.8297C17.7793 18.6982 17.3785 18.544 16.987 18.368C16.1471 18.047 15.4469 17.565 14.8672 16.8826C14.2866 16.2204 14.0268 15.3774 14.0268 14.3537C14.047 13.691 14.1872 13.1092 14.4268 12.607C14.6871 12.1053 15.0271 11.6836 15.4671 11.3626C15.9074 11.0416 16.3872 10.7799 16.9275 10.6199C17.4862 10.4571 18.0654 10.3759 18.6473 10.3789H18.6876C19.6078 10.3986 20.4275 10.5794 21.1076 10.9008C21.7845 11.24 22.4276 11.6433 23.0281 12.1053L21.608 14.1527C21.208 13.8515 20.7676 13.6105 20.3277 13.41C19.8676 13.209 19.3076 13.089 18.6478 13.0485C18.1473 13.0085 17.6872 13.1088 17.3074 13.3497C16.9073 13.5705 16.7071 13.9117 16.7071 14.3532C16.7071 14.6144 16.7671 14.8554 16.9073 15.0559C17.0476 15.2569 17.2473 15.4376 17.4875 15.5779C17.7276 15.7384 17.9874 15.8391 18.2472 15.9596C18.5075 16.0599 18.7875 16.1601 19.0276 16.2609C19.5477 16.4411 20.0678 16.6618 20.5875 16.9226C21.0912 17.1781 21.5616 17.4951 21.9879 17.8663C22.4081 18.2278 22.7279 18.6692 22.9878 19.171C23.2279 19.6732 23.3479 20.2554 23.3283 20.9379C23.3081 21.6001 23.1678 22.2021 22.9282 22.7043C22.6679 23.2263 22.3082 23.6475 21.8678 24.009C21.4077 24.3705 20.8876 24.6312 20.2878 24.812C19.6875 24.9927 19.0276 25.0732 18.3274 25.0529C17.6676 25.0332 17.0677 24.9527 16.5275 24.7715C15.9872 24.5912 15.4872 24.3902 15.0468 24.1492C14.6515 23.9371 14.2765 23.6886 13.9269 23.407C13.6071 23.1858 13.3871 22.9853 13.2469 22.8243L14.7073 20.7571C15.2049 21.233 15.7799 21.6199 16.4074 21.9013C17.0672 22.2223 17.7473 22.3828 18.4475 22.3828C19.0478 22.4031 19.5477 22.2623 19.9876 22.0016C20.4275 21.7409 20.6273 21.3394 20.648 20.8371C20.648 20.4559 20.5279 20.1552 20.2676 19.9142ZM50.3711 18.0855C49.9509 17.7043 49.4908 17.4031 48.9707 17.1221C48.4511 16.8613 47.9309 16.6204 47.3911 16.4396C47.1304 16.3394 46.8705 16.2386 46.5906 16.1384C46.3159 16.044 46.054 15.916 45.8106 15.7571C45.5705 15.6164 45.3904 15.4362 45.23 15.2352C45.0863 15.0293 45.0096 14.7838 45.0105 14.5325C45.0302 14.091 45.2305 13.7497 45.6109 13.529C46.0104 13.3083 46.4508 13.208 46.9704 13.2475C47.6308 13.288 48.2104 13.4085 48.671 13.609C49.1311 13.8302 49.571 14.0707 49.971 14.372L51.4113 12.3246C50.811 11.8426 50.1511 11.4411 49.4711 11.0999C48.7911 10.7586 47.9703 10.5981 47.0506 10.5779H47.0108C46.4105 10.5581 45.8303 10.6381 45.2704 10.8189C44.7104 10.9996 44.2301 11.2406 43.7902 11.5616C43.3503 11.8826 43.0103 12.3043 42.75 12.806C42.4902 13.3083 42.35 13.9102 42.3303 14.5729C42.3101 15.5967 42.5901 16.4396 43.1702 17.1018C43.7437 17.7653 44.4722 18.2757 45.2905 18.5873C45.6704 18.7483 46.0704 18.9083 46.5108 19.0292C46.9306 19.1695 47.3306 19.3305 47.6908 19.5107C48.0505 19.6915 48.3507 19.8925 48.5913 20.1532C48.8309 20.4144 48.9707 20.7152 48.9505 21.0964C48.9308 21.5986 48.7109 22.0001 48.2911 22.2608C47.8709 22.5221 47.3508 22.6623 46.751 22.6426C46.0389 22.6213 45.3383 22.4574 44.6902 22.1606C44.0304 21.8396 43.4502 21.4579 42.97 21.0164L41.4898 23.0841C41.6301 23.2248 41.8702 23.4455 42.1704 23.7063C42.52 23.9881 42.8949 24.2367 43.2903 24.449C43.7302 24.69 44.2301 24.891 44.7704 25.0712C45.3304 25.252 45.9307 25.3325 46.591 25.3527C47.2908 25.3725 47.9506 25.2925 48.5509 25.1117C49.1513 24.931 49.6911 24.6697 50.1511 24.3088C50.6056 23.954 50.9748 23.5012 51.2312 22.9838C51.491 22.4618 51.6313 21.8594 51.6514 21.1971C51.6711 20.5147 51.5511 19.9122 51.2912 19.4105C51.1111 18.8885 50.7913 18.447 50.3711 18.0855ZM86.6352 17.5453C86.7552 17.4248 86.8955 17.2638 87.0155 17.1236C87.1553 16.9631 87.2753 16.7828 87.3752 16.5413C87.4953 16.3008 87.5755 16.0396 87.6557 15.7186C87.7157 15.3976 87.7556 15.0159 87.7556 14.5542C87.7553 14.1082 87.674 13.6661 87.5155 13.2495C87.36 12.8298 87.1296 12.442 86.8354 12.1053C86.5353 11.7641 86.1953 11.4628 85.775 11.2218C85.339 10.97 84.8553 10.8127 84.3549 10.7601C84.0149 10.7201 83.6351 10.6801 83.235 10.6801C82.8148 10.6599 82.3951 10.6599 81.9148 10.6599L78.0344 10.6796V25.3739H83.3949C83.8949 25.3739 84.2752 25.3739 84.5951 25.3542C85.1354 25.2939 85.6353 25.1734 86.1156 24.9725C86.5751 24.772 87.0155 24.491 87.3556 24.1295C87.7157 23.768 87.9957 23.3265 88.2157 22.8446C88.4288 22.3083 88.5374 21.736 88.5355 21.1586C88.5355 20.1749 88.3357 19.3922 87.9554 18.81C87.5755 18.2075 87.1356 17.7863 86.6352 17.5453ZM80.4745 13.1892H81.7347C82.1549 13.1892 82.5348 13.1892 82.8551 13.209C83.175 13.2292 83.4751 13.2495 83.6951 13.2692C84.195 13.3295 84.5951 13.4905 84.8952 13.7512C85.2151 13.9922 85.375 14.3537 85.3553 14.7952C85.375 15.3571 85.1954 15.7789 84.8952 16.0199C84.5749 16.2604 84.1749 16.4213 83.6749 16.4811C83.4348 16.5216 83.1548 16.5413 82.835 16.5413H80.4549V13.1892H80.4745ZM85.5152 22.1423C85.155 22.4831 84.5749 22.6841 83.7748 22.7246C83.5352 22.7443 83.235 22.7641 82.835 22.7443H80.4549V18.9502H81.6747C82.055 18.9502 82.4147 18.9502 82.7548 18.9305C83.0948 18.9107 83.3949 18.9107 83.6351 18.9305C84.415 18.9705 84.9951 19.1512 85.4153 19.4722C85.8351 19.7932 86.0555 20.2352 86.0555 20.8174C86.0752 21.3591 85.8951 21.8011 85.5152 22.1423ZM63.673 17.4648C63.393 16.7023 62.993 16.0396 62.4729 15.5176C61.973 14.9759 61.3726 14.5744 60.6926 14.2929C60.0141 14.011 59.2864 13.8678 58.5521 13.8717C57.6325 13.8717 56.8122 14.0322 56.112 14.3132C55.3921 14.6144 54.7918 15.0357 54.312 15.5576C53.8318 16.0796 53.4716 16.6821 53.2118 17.3646C52.9716 18.047 52.8516 18.7897 52.8516 19.5725C52.8516 20.4357 53.0115 21.2189 53.3117 21.9413C53.6043 22.6246 54.0253 23.245 54.5517 23.7685C55.072 24.2737 55.6829 24.6755 56.3521 24.9527C57.0321 25.2134 57.752 25.3542 58.5123 25.3542C59.2125 25.3542 59.8325 25.2939 60.3526 25.1734C60.8307 25.0838 61.2994 24.9494 61.7525 24.772C62.1368 24.5974 62.505 24.3892 62.8528 24.1497C63.1731 23.929 63.4728 23.7078 63.7729 23.487L62.4729 21.6604C62.2928 21.8011 62.1127 21.9418 61.8927 22.1018C61.6526 22.2623 61.3525 22.4031 61.0326 22.5438C60.7128 22.6638 60.3526 22.7646 59.9324 22.845C59.5323 22.9048 59.0722 22.9453 58.5723 22.925C58.2902 22.9018 58.0097 22.8615 57.7324 22.8046C57.4361 22.7259 57.153 22.6041 56.8919 22.4431C56.629 22.2565 56.3876 22.0412 56.172 21.8011C55.9521 21.5399 55.7921 21.2184 55.6918 20.8371L55.6721 20.7369H64.0131L64.0332 20.0949C64.0731 19.091 63.953 18.2278 63.673 17.4648ZM55.5919 18.529L55.612 18.4485C55.6519 18.1275 55.7518 17.9665 55.8522 17.7458L55.9122 17.6253C56.083 17.3378 56.3069 17.0857 56.5721 16.8826C56.8335 16.6829 57.1332 16.5395 57.4524 16.4613C57.7924 16.3606 58.1324 16.3004 58.4724 16.3004C59.2725 16.3206 59.9324 16.5413 60.4126 16.9833C60.6528 17.1838 60.8525 17.3848 61.0124 17.6055C61.1729 17.8263 61.2727 18.087 61.3126 18.4283L61.3328 18.529H55.5919ZM73.534 14.9957L73.3741 14.8554C73.034 14.5542 72.5937 14.3132 72.0937 14.1527C71.6135 13.972 71.0338 13.8712 70.3735 13.8712C69.6334 13.8712 68.9332 14.012 68.2935 14.2934C67.6611 14.5533 67.094 14.9508 66.6333 15.4574C66.153 15.9591 65.7928 16.5818 65.5129 17.3043C65.2531 18.007 65.1128 18.81 65.1128 19.6929C65.1128 20.4762 65.2531 21.2189 65.5129 21.9013C65.7928 22.5838 66.153 23.1655 66.6333 23.688C67.1114 24.1902 67.6732 24.6047 68.2935 24.9127C68.9332 25.1932 69.6132 25.3339 70.3735 25.3339C71.0338 25.3339 71.6135 25.2534 72.0937 25.0727C72.5937 24.8925 73.034 24.6312 73.3741 24.3102L73.534 24.1497V25.3137H76.1144V14.1927H73.534V14.9957ZM73.2939 21.0179C73.1339 21.3996 72.914 21.7409 72.6537 22.0016C72.3939 22.2628 72.0937 22.4431 71.7537 22.5838C71.4131 22.7038 71.0547 22.7649 70.6938 22.7646C69.8735 22.7646 69.1935 22.4831 68.6335 21.9413C68.0731 21.3591 67.8133 20.5967 67.8133 19.6529C67.8133 18.7295 68.0932 17.9665 68.6335 17.3646C69.1935 16.7621 69.8735 16.4608 70.6938 16.4608C71.0737 16.4608 71.4339 16.5413 71.7537 16.6821C72.1139 16.8223 72.4136 17.0228 72.6537 17.3043C72.914 17.565 73.1339 17.9068 73.2939 18.328C73.4538 18.7295 73.534 19.171 73.534 19.6929C73.534 20.1749 73.4538 20.6164 73.2939 21.0179ZM97.7169 14.9957L97.557 14.8554C97.217 14.5542 96.7771 14.3132 96.2767 14.1527C95.7969 13.972 95.2168 13.8712 94.5569 13.8712C93.8168 13.8712 93.1166 14.012 92.4765 14.2934C91.844 14.5533 91.2769 14.9508 90.8162 15.4574C90.336 15.9591 89.9763 16.5818 89.6963 17.3043C89.436 18.007 89.2963 18.81 89.2963 19.6929C89.2963 20.4762 89.436 21.2189 89.6963 21.9013C89.9763 22.5838 90.336 23.1655 90.8162 23.688C91.2944 24.1901 91.8563 24.6045 92.4765 24.9127C93.1166 25.1932 93.7967 25.3339 94.5569 25.3339C95.2168 25.3339 95.7969 25.2534 96.2767 25.0727C96.7771 24.8925 97.217 24.6312 97.557 24.3102L97.7169 24.1497V25.3137H100.297V14.2529H97.7169V14.9957ZM97.4768 21.0179C97.3169 21.3996 97.0969 21.7409 96.8371 22.0016C96.5768 22.2628 96.2767 22.4431 95.9367 22.5838C95.5961 22.7038 95.2377 22.7649 94.8767 22.7646C94.0565 22.7646 93.3764 22.4831 92.8165 21.9413C92.2565 21.3591 91.9962 20.5967 91.9962 19.6529C91.9962 18.7295 92.2762 17.9665 92.8165 17.3646C93.3764 16.7621 94.0565 16.4608 94.8767 16.4608C95.2566 16.4608 95.5966 16.5413 95.9367 16.6821C96.2968 16.8223 96.597 17.0228 96.8371 17.3043C97.0969 17.565 97.3169 17.9068 97.4768 18.328C97.6372 18.7295 97.7169 19.171 97.7169 19.6929C97.7169 20.1749 97.6372 20.6164 97.4768 21.0179ZM119.139 19.0515L123.84 13.8925H120.439L116.559 18.128V10.4999H113.959V25.3542H116.559V21.9823L117.419 21.0184L120.779 25.3542H124L119.139 19.0515ZM111.638 16.4613C111.398 15.7789 110.939 15.1769 110.278 14.6752C109.618 14.1729 108.778 13.9122 107.778 13.9122C107.258 13.9122 106.718 13.9922 106.178 14.1532C105.705 14.2953 105.264 14.5269 104.878 14.8357V14.2529H102.257V25.3542H104.878V19.4125C104.898 19.011 104.938 18.6297 104.978 18.2683C105.038 17.887 105.138 17.5655 105.298 17.2846C105.458 17.0036 105.698 16.7828 105.998 16.6021C106.298 16.4213 106.678 16.3206 107.138 16.3008C107.718 16.2811 108.178 16.4416 108.538 16.7428C108.898 17.0638 109.138 17.4653 109.258 17.9873C109.318 18.2283 109.358 18.5492 109.399 18.9507C109.418 19.332 109.438 19.8939 109.438 20.6371V25.3542H112.019V19.9952C112.022 19.3657 112.002 18.7363 111.959 18.1083C111.922 17.5481 111.814 16.9944 111.638 16.4613Z" fill="#EA5F00"/>
</g>
<defs>
<clipPath id="clip0_48_2389">
<rect width="124" height="40" fill="white"/>
</clipPath>
</defs>
</svg>
