<svg width="54" height="55" viewBox="0 0 54 55" fill="none" xmlns="http://www.w3.org/2000/svg">
<g id="fluent:sparkle-20-filled">
<path id="Vector" d="M19.9746 34.9084C20.4504 35.2444 21.0189 35.4241 21.6013 35.4227C22.1837 35.4212 22.7513 35.2387 23.2254 34.9003C23.706 34.5493 24.0705 34.0633 24.2703 33.5017L25.4772 29.7946C25.7869 28.8655 26.3084 28.021 27.0005 27.328C27.6926 26.6349 28.5363 26.1123 29.4651 25.8013L33.2208 24.5863C33.7761 24.3853 34.2543 24.0151 34.588 23.5279C34.9218 23.0407 35.0942 22.4611 35.0811 21.8707C35.068 21.2803 34.8699 20.7089 34.5149 20.237C34.1598 19.7651 33.6657 19.4165 33.102 19.2403L29.3895 18.0307C28.4598 17.7214 27.6148 17.2001 26.9213 16.5079C26.2278 15.8158 25.7047 14.9719 25.3935 14.0428L24.1731 10.2952C23.9766 9.74313 23.6129 9.26599 23.1326 8.93021C22.6523 8.59443 22.0792 8.4167 21.4932 8.42175C20.9072 8.4268 20.3373 8.61438 19.8629 8.95838C19.3884 9.30239 19.033 9.78573 18.846 10.3411L17.6121 14.1211C17.3024 15.0253 16.7915 15.8474 16.1181 16.5255C15.4446 17.2036 14.6261 17.7201 13.7241 18.0361L9.97111 19.243C9.41922 19.44 8.94233 19.8039 8.60666 20.2842C8.27099 20.7645 8.09318 21.3373 8.09793 21.9233C8.10268 22.5093 8.28975 23.0792 8.63316 23.554C8.97658 24.0288 9.4593 24.3849 10.0143 24.5728L13.7241 25.7743C14.6585 26.0844 15.5071 26.6095 16.2016 27.3073C16.8961 28.0051 17.4171 28.8561 17.7228 29.7919L18.9432 33.5476C19.1376 34.0984 19.4994 34.5736 19.9746 34.9084ZM36.5445 45.8218C36.8207 46.016 37.1383 46.1433 37.4721 46.1935C37.806 46.2438 38.1469 46.2157 38.468 46.1114C38.7892 46.0072 39.0816 45.8297 39.3223 45.5929C39.563 45.3561 39.7452 45.0666 39.8547 44.7472L40.5243 42.6898C40.6693 42.2635 40.9094 41.8757 41.2263 41.5558C41.5449 41.2318 41.9337 40.9942 42.3603 40.8538L44.4447 40.1734C44.8748 40.025 45.2471 39.7445 45.5084 39.372C45.7697 38.9995 45.9066 38.5539 45.8997 38.099C45.8929 37.644 45.7425 37.2028 45.47 36.8384C45.1976 36.4739 44.817 36.2048 44.3826 36.0694L42.3198 35.3944C41.8933 35.2516 41.5057 35.012 41.1872 34.6944C40.8687 34.3769 40.6279 33.9899 40.4838 33.5638L39.8034 31.4767C39.6573 31.0475 39.3798 30.6751 39.0103 30.4123C38.6407 30.1496 38.1978 30.0098 37.7444 30.0128C37.2909 30.0158 36.8499 30.1614 36.4839 30.429C36.1178 30.6966 35.8452 31.0726 35.7048 31.5037L35.0379 33.5611C34.9001 33.9844 34.6663 34.3701 34.3549 34.6881C34.0434 35.0061 33.6627 35.2478 33.2424 35.3944L31.1553 36.0748C30.7259 36.2204 30.3531 36.4974 30.0899 36.8666C29.8266 37.2358 29.6863 37.6785 29.6887 38.1319C29.6911 38.5854 29.8361 39.0265 30.1032 39.393C30.3703 39.7594 30.746 40.0324 31.1769 40.1734L33.237 40.8403C33.669 40.9861 34.0578 41.2264 34.3764 41.545C34.6977 41.8663 34.9353 42.2551 35.073 42.6844L35.7561 44.7742C35.904 45.1967 36.1795 45.5628 36.5445 45.8218Z" fill="#4FB1BF"/>
</g>
</svg>
