<svg width="64" height="64" viewBox="0 0 64 64" fill="none" xmlns="http://www.w3.org/2000/svg">
<g id="material-symbols:mail-rounded">
<path id="Vector" d="M10.6667 53.3337C9.20004 53.3337 7.94493 52.8119 6.90137 51.7683C5.85782 50.7248 5.33515 49.4688 5.33337 48.0003V16.0003C5.33337 14.5337 5.85604 13.2785 6.90137 12.235C7.94671 11.1914 9.20182 10.6688 10.6667 10.667H53.3334C54.8 10.667 56.056 11.1897 57.1014 12.235C58.1467 13.2803 58.6685 14.5354 58.6667 16.0003V48.0003C58.6667 49.467 58.1449 50.723 57.1014 51.7683C56.0578 52.8137 54.8018 53.3354 53.3334 53.3337H10.6667ZM32 34.2003C32.2223 34.2003 32.456 34.1665 32.7014 34.099C32.9467 34.0314 33.1796 33.9319 33.4 33.8003L52.2667 22.0003C52.6223 21.7781 52.8889 21.5008 53.0667 21.1683C53.2445 20.8359 53.3334 20.4688 53.3334 20.067C53.3334 19.1781 52.9556 18.5114 52.2 18.067C51.4445 17.6225 50.6667 17.6448 49.8667 18.1337L32 29.3337L14.1334 18.1337C13.3334 17.6448 12.5556 17.6341 11.8 18.1017C11.0445 18.5692 10.6667 19.2243 10.6667 20.067C10.6667 20.5114 10.7556 20.9008 10.9334 21.235C11.1112 21.5692 11.3778 21.8243 11.7334 22.0003L30.6 33.8003C30.8223 33.9337 31.056 34.0341 31.3014 34.1017C31.5467 34.1692 31.7796 34.2021 32 34.2003Z" fill="#FFFDFA"/>
</g>
</svg>
