<svg width="21" height="20" viewBox="0 0 21 20" fill="none" xmlns="http://www.w3.org/2000/svg">
<g id="pepicons-pop:refresh">
<g id="Group">
<path id="Vector" d="M5.55016 14.95C5.45465 14.8578 5.37847 14.7474 5.32606 14.6254C5.27365 14.5034 5.24606 14.3722 5.24491 14.2394C5.24376 14.1066 5.26906 13.9749 5.31934 13.852C5.36962 13.7291 5.44387 13.6175 5.53777 13.5236C5.63166 13.4297 5.74331 13.3555 5.86621 13.3052C5.9891 13.2549 6.12078 13.2296 6.25356 13.2307C6.38634 13.2319 6.51756 13.2595 6.63957 13.3119C6.76157 13.3643 6.87191 13.4405 6.96416 13.536C7.66343 14.2355 8.55443 14.7118 9.52445 14.9048C10.4945 15.0978 11.5 14.9988 12.4137 14.6203C13.3275 14.2418 14.1084 13.6008 14.6578 12.7783C15.2072 11.9559 15.5003 10.989 15.5002 10C15.5002 9.73478 15.6055 9.48043 15.7931 9.29289C15.9806 9.10536 16.2349 9 16.5002 9C16.7654 9 17.0197 9.10536 17.2073 9.29289C17.3948 9.48043 17.5002 9.73478 17.5002 10C17.5003 11.3845 17.0898 12.738 16.3206 13.8893C15.5514 15.0405 14.4582 15.9378 13.179 16.4676C11.8999 16.9975 10.4923 17.1361 9.13439 16.866C7.77646 16.5958 6.52913 15.9291 5.55016 14.95Z" fill="white"/>
<path id="Vector_2" d="M14.059 12.8321C13.9498 12.905 13.8272 12.9557 13.6984 12.9812C13.5696 13.0067 13.437 13.0066 13.3082 12.9809C13.1794 12.9552 13.0569 12.9043 12.9478 12.8313C12.8386 12.7582 12.7449 12.6644 12.672 12.5551C12.5248 12.3345 12.4713 12.0644 12.5233 11.8043C12.5752 11.5441 12.7284 11.3153 12.949 11.1681L15.949 9.16812C16.0583 9.09524 16.1808 9.04459 16.3097 9.01907C16.4385 8.99354 16.5711 8.99365 16.6999 9.01937C16.8287 9.04509 16.9512 9.09593 17.0603 9.16898C17.1695 9.24203 17.2632 9.33586 17.336 9.44512C17.4089 9.55438 17.4596 9.67693 17.4851 9.80576C17.5106 9.9346 17.5105 10.0672 17.4848 10.196C17.4591 10.3248 17.4082 10.4473 17.3352 10.5564C17.2621 10.6656 17.1683 10.7592 17.059 10.8321L14.059 12.8321Z" fill="white"/>
<path id="Vector_3" d="M19.3322 12.4453C19.4794 12.6659 19.5329 12.936 19.481 13.1962C19.429 13.4563 19.2759 13.6851 19.0552 13.8323C18.8346 13.9795 18.5645 14.033 18.3044 13.981C18.0442 13.9291 17.8154 13.776 17.6682 13.5553L15.6682 10.5553C15.5953 10.446 15.5447 10.3235 15.5192 10.1947C15.4936 10.0658 15.4937 9.93322 15.5195 9.80442C15.5714 9.54431 15.7246 9.31549 15.9452 9.16829C16.1659 9.02109 16.436 8.96759 16.6961 9.01953C16.9562 9.07148 17.185 9.22463 17.3322 9.44529L19.3322 12.4453ZM15.3572 4.85129C15.4527 4.94354 15.5289 5.05388 15.5813 5.17589C15.6337 5.29789 15.6613 5.42911 15.6625 5.56189C15.6636 5.69467 15.6383 5.82635 15.588 5.94924C15.5378 6.07214 15.4635 6.18379 15.3696 6.27768C15.2757 6.37158 15.1641 6.44583 15.0412 6.49611C14.9183 6.54639 14.7866 6.57169 14.6538 6.57054C14.521 6.56939 14.3898 6.5418 14.2678 6.48939C14.1458 6.43698 14.0355 6.3608 13.9432 6.26529C13.244 5.56584 12.353 5.08948 11.3829 4.89648C10.4129 4.70348 9.40743 4.8025 8.49368 5.18101C7.57994 5.55953 6.79898 6.20053 6.24958 7.02295C5.70019 7.84537 5.40704 8.81225 5.40723 9.80129C5.40723 10.0665 5.30187 10.3209 5.11433 10.5084C4.9268 10.6959 4.67244 10.8013 4.40723 10.8013C4.14201 10.8013 3.88766 10.6959 3.70012 10.5084C3.51258 10.3209 3.40723 10.0665 3.40723 9.80129C3.40713 8.41675 3.81762 7.06327 4.58678 5.91203C5.35594 4.7608 6.44923 3.86351 7.72837 3.33366C9.00752 2.8038 10.4151 2.66518 11.773 2.93532C13.1309 3.20545 14.3783 3.87222 15.3572 4.85129Z" fill="white"/>
<path id="Vector_4" d="M6.8492 6.96891C7.06986 6.82171 7.33996 6.76821 7.60007 6.82015C7.86019 6.8721 8.08901 7.02525 8.2362 7.24591C8.3834 7.46657 8.43691 7.73667 8.38496 7.99678C8.33301 8.25689 8.17986 8.48572 7.9592 8.63291L4.9582 10.6329C4.84895 10.7058 4.7264 10.7564 4.59757 10.782C4.46873 10.8075 4.33613 10.8074 4.20734 10.7817C4.07854 10.7559 3.95607 10.7051 3.84693 10.6321C3.73778 10.559 3.64409 10.4652 3.5712 10.3559C3.42401 10.1352 3.3705 9.86515 3.42245 9.60504C3.4744 9.34493 3.62754 9.1161 3.8482 8.96891L6.8492 6.96891Z" fill="white"/>
<path id="Vector_5" d="M1.57511 7.35591C1.50222 7.24665 1.45157 7.1241 1.42605 6.99527C1.40053 6.86643 1.40063 6.73383 1.42635 6.60504C1.45207 6.47624 1.50291 6.35377 1.57596 6.24463C1.64901 6.13548 1.74285 6.04179 1.85211 5.96891C1.96137 5.89602 2.08391 5.84537 2.21275 5.81985C2.34158 5.79432 2.47418 5.79443 2.60298 5.82015C2.73177 5.84587 2.85424 5.89671 2.96339 5.96976C3.07253 6.04281 3.16622 6.13665 3.23911 6.24591L5.23911 9.24591C5.31199 9.35517 5.36264 9.47771 5.38816 9.60655C5.41369 9.73538 5.41359 9.86798 5.38786 9.99677C5.36214 10.1256 5.3113 10.248 5.23825 10.3572C5.1652 10.4663 5.07137 10.56 4.96211 10.6329C4.85285 10.7058 4.7303 10.7564 4.60147 10.782C4.47263 10.8075 4.34003 10.8074 4.21124 10.7817C4.08244 10.7559 3.95998 10.7051 3.85083 10.6321C3.74168 10.559 3.64799 10.4652 3.57511 10.3559L1.57511 7.35591Z" fill="white"/>
</g>
</g>
</svg>
