<svg width="64" height="64" viewBox="0 0 64 64" fill="none" xmlns="http://www.w3.org/2000/svg">
<g id="material-symbols:qr-code">
<path id="Vector" d="M8 29.3333V8H29.3333V29.3333H8ZM13.3333 24H24V13.3333H13.3333V24ZM8 56V34.6667H29.3333V56H8ZM13.3333 50.6667H24V40H13.3333V50.6667ZM34.6667 29.3333V8H56V29.3333H34.6667ZM40 24H50.6667V13.3333H40V24ZM50.6667 56V50.6667H56V56H50.6667ZM34.6667 40V34.6667H40V40H34.6667ZM40 45.3333V40H45.3333V45.3333H40ZM34.6667 50.6667V45.3333H40V50.6667H34.6667ZM40 56V50.6667H45.3333V56H40ZM45.3333 50.6667V45.3333H50.6667V50.6667H45.3333ZM45.3333 40V34.6667H50.6667V40H45.3333ZM50.6667 45.3333V40H56V45.3333H50.6667Z" fill="#FFFDFA"/>
</g>
</svg>
